<?xml version="1.0" encoding="utf-8"?>
<!DOCTYPE svg PUBLIC "-//W3C//DTD SVG 20010904//EN" "http://www.w3.org/TR/2001/REC-SVG-20010904/DTD/svg10.dtd">
<svg version="1.0" xmlns="http://www.w3.org/2000/svg" width="499px" height="374px" viewBox="0 0 499 374" preserveAspectRatio="xMidYMid meet">
 <g fill="#ffffff">
  <path d="M0 187 l0 -187 249.5 0 249.5 0 0 187 0 187 -249.5 0 -249.5 0 0 -187z m429.5 134.4 c4.2 -1.7 4.5 -4.4 4.5 -44.6 0 -58.8 -2.7 -175 -4.7 -203.8 -0.6 -8.9 -0.8 -9.7 -3.6 -12.3 -4.4 -4.1 -6.7 -3.3 -10 3.4 -2.2 4.4 -3.2 8.7 -4.7 20.5 -2.7 21.1 -5.1 54.2 -5.3 72.4 -0.2 14.9 -0.1 15.7 2.5 21.2 1.5 3.2 4.8 8 7.4 10.8 l4.7 5 -1.3 49.7 c-0.7 27.4 -1.1 55.4 -0.9 62.1 0.4 11.6 0.6 12.5 2.8 14.3 2.4 1.9 5.6 2.4 8.6 1.3z m-168.5 -1.4 c4.2 -0.5 1.9 -0.8 -9.6 -0.9 -8.3 0 -17.3 -0.3 -20 -0.6 -7.3 -0.8 -4 0.3 4.1 1.4 8.7 1.1 18.3 1.1 25.5 0.1z m-174.6 -2.1 c1.5 -1.2 3.2 -3.3 3.7 -4.7 0.7 -1.8 0 -26.9 -2.1 -79.1 -3.6 -86 -3.9 -80.5 4 -85.7 5.2 -3.5 8 -8.8 7.9 -15.1 -0.1 -3.6 -0.3 -4.2 -0.8 -2.3 -0.7 2.4 -1 2.5 -10.6 2.7 -8.3 0.2 -10.2 -0.1 -11.2 -1.4 -1.2 -1.5 -1.3 -1.5 -1.3 -0.1 0 1.9 -2 2.8 -6.4 2.8 -5.2 0 -5.6 -1 -5.8 -16.9 l-0.1 -14.6 -1 14.8 c-0.5 8.1 -0.6 16.4 -0.2 18.4 0.4 2.5 2.6 5.6 7.6 10.9 l6.9 7.3 0 18 c0 21.7 -1.7 85.5 -3 114.7 -1 23.1 -0.6 27 3.7 30.4 3.3 2.6 5.3 2.5 8.7 -0.1z m38.1 -124.5 c0 -21.8 -1.4 -23.7 -1.8 -2.4 -0.2 8.5 0.9 24 1.6 24 0.1 0 0.2 -9.7 0.2 -21.6z m252.3 0.1 c0 -4.4 -0.3 -10.2 -0.8 -13 -0.5 -3.4 -0.7 0.8 -0.7 13 0 12.2 0.2 16.4 0.7 13 0.5 -2.7 0.8 -8.6 0.8 -13z m-125.4 -125.6 c13.5 -0.1 14.4 -0.2 8.6 -1.1 -6.8 -0.9 -22.7 -0.3 -29.5 1.2 -3.9 0.9 -3.9 0.9 0.9 0.5 2.7 -0.3 11.7 -0.6 20 -0.6z"/>
 </g>
 <g fill="#cccccc">
  <path d="M421.4 324.9 c-1.7 -0.5 -3.8 -1.6 -4.5 -2.5 -2.1 -2.5 -2.3 -27.9 -0.9 -80.7 l1.2 -44.8 -4.7 -5 c-2.5 -2.7 -5.8 -7.5 -7.3 -10.7 -2.6 -5.6 -2.7 -6.1 -2.6 -24.2 0.2 -20.5 2.5 -52.6 5.4 -75.4 1.5 -11.8 2.5 -16.1 4.7 -20.5 4.1 -8.2 9.6 -9.4 16 -3.4 2.8 2.6 3 3.5 3.6 12.3 2.1 29.5 4.7 145.3 4.7 206.8 0 45.6 0 46 -6.1 48.1 -3.7 1.3 -5.2 1.3 -9.5 0z"/>
  <path d="M232.6 322.9 c-56.1 -7.7 -100.3 -49.7 -111.3 -105.7 -2.3 -11.8 -2.3 -35.6 0 -47.4 10.5 -53.3 50 -93.2 103.7 -104.5 11.6 -2.4 37 -2.4 49.3 0 45.9 9.2 84.4 42.9 99 86.7 4.9 14.9 6.2 23.3 6.2 41.5 0 18.2 -1.3 26.6 -6.2 41.5 -14.5 43.6 -53.4 77.7 -98.5 86.5 -10.1 2 -32.8 2.7 -42.2 1.4z m38 -8.4 c49.8 -8.7 89.2 -47.3 99.4 -97.4 2.8 -13.6 2.8 -33.6 0 -47.2 -13.4 -65.6 -75.6 -108.5 -141 -97.3 -29.5 5.1 -56 20.6 -74.5 43.7 -11.9 14.8 -19 29.1 -24.3 48.6 -2.3 8.7 -2.5 11.3 -2.5 28.6 0 17.3 0.2 19.9 2.5 28.6 11.7 43.5 41.4 75.3 82.5 88.4 17.1 5.4 40.2 7 57.9 4z"/>
  <path d="M227.3 279.5 c-16.5 -4.2 -30.9 -12.9 -42.9 -25.8 -15.6 -16.8 -23.4 -36.9 -23.4 -60.2 0 -23.3 7.8 -43.4 23.4 -60.2 17.4 -18.7 39.3 -28.3 64.7 -28.3 6.5 0 14.9 0.7 18.7 1.5 51.5 10.8 82.3 63.4 66.6 113.7 -9.5 30.6 -35 53.7 -66.6 60.3 -11 2.4 -29.4 1.9 -40.5 -1z m37.9 -2.9 c17.1 -3.3 31.2 -10.8 43.9 -23.5 10.2 -10.2 16.6 -20.5 21.1 -34.1 3.1 -9.1 3.2 -10.2 3.2 -25.5 0 -15.3 -0.1 -16.4 -3.2 -25.5 -4.5 -13.6 -10.9 -23.9 -21.1 -34.1 -17.8 -17.7 -39.5 -26 -64.4 -24.6 -12.5 0.7 -22.4 3.4 -33.7 9.2 -16.8 8.7 -28.8 21.1 -37 38 -6.8 14.1 -8.4 21.2 -8.4 37 0 15.8 1.6 22.9 8.4 37 8.3 17 20.2 29.3 37 38 7.6 3.9 18.3 7.5 26 8.8 5.8 1 21.4 0.6 28.2 -0.7z"/>
  <path d="M74.7 320.9 c-4.5 -3.5 -4.9 -7.6 -3.8 -34.8 1.4 -31.7 3.1 -93.3 3.1 -112.9 l0 -15.3 -6.9 -7.3 c-5.2 -5.5 -7.1 -8.3 -7.7 -11.2 -0.9 -4.7 0.1 -25.9 2.6 -58.6 1.9 -24.2 2.4 -26.7 5.2 -26.8 0.5 0 0.5 17 0.1 37.8 -0.5 33.1 -0.4 37.9 0.9 39 0.9 0.7 2.3 1 3.2 0.6 1.4 -0.5 1.6 -4.7 1.8 -38.8 0.3 -37.3 0.3 -38.1 2.3 -38.1 2 0 2 0.9 2.7 36.2 0.7 35.7 1.3 41 4.1 40 0.9 -0.3 1.2 -9.9 1 -38.5 -0.1 -38.7 -0.1 -39.7 3.3 -37.4 0.8 0.5 1.4 9.9 1.9 28.7 0.4 15.4 1 32.3 1.4 37.5 0.6 9.3 0.7 9.5 3.1 9.5 l2.5 0 0 -12 c0 -6.6 -0.3 -23.8 -0.8 -38.2 -0.7 -25.5 -0.7 -26.3 1.2 -26.3 1.7 0 2 1 2.5 9.3 1.2 17.9 3.7 58.3 4.3 67.7 0.5 8.4 0.3 10.1 -1.5 13.6 -1.1 2.2 -3.9 5.2 -6.1 6.7 -7.7 5.1 -7.5 -0.3 -4.1 81.3 1.7 39.9 3.3 73 3.6 73.5 0.3 0.5 0 3.4 -0.6 6.4 -1.5 7.3 -5.2 10.5 -11.9 10.5 -3.4 0 -5.6 -0.6 -7.4 -2.1z"/>
 </g>
 <g fill="#999999">
 </g>
 <g fill="#666666">
 </g>
 <g fill="#333333">
 </g>
 <g fill="#000000">
 </g>
</svg>