<svg xmlns:dc="http://purl.org/dc/elements/1.1/" xmlns:cc="http://creativecommons.org/ns#" xmlns:rdf="http://www.w3.org/1999/02/22-rdf-syntax-ns#" xmlns:svg="http://www.w3.org/2000/svg" xmlns="http://www.w3.org/2000/svg" xmlns:sodipodi="http://sodipodi.sourceforge.net/DTD/sodipodi-0.dtd" xmlns:inkscape="http://www.inkscape.org/namespaces/inkscape" version="1.1" id="svg2" xml:space="preserve" sodipodi:docname="52913.eps" viewBox="12.56 33.6 541.81 499.82"><metadata id="metadata8"><rdf:RDF><cc:Work rdf:about=""><dc:format>image/svg+xml</dc:format><dc:type rdf:resource="http://purl.org/dc/dcmitype/StillImage"/></cc:Work></rdf:RDF></metadata><defs id="defs6"/><sodipodi:namedview pagecolor="#ffffff" bordercolor="#666666" borderopacity="1" objecttolerance="10" gridtolerance="10" guidetolerance="10" inkscape:pageopacity="0" inkscape:pageshadow="2" inkscape:window-width="640" inkscape:window-height="480" id="namedview4"/><g id="g10" inkscape:groupmode="layer" inkscape:label="ink_ext_XXXXXX" transform="matrix(1.3333333,0,0,-1.3333333,0,566.93333)"><g id="g12" transform="scale(0.1)"><path d="m 2076.56,3786.29 h -9.37 v 120.22 c -1.61,-0.02 -3.33,-0.03 -5.18,-0.03 -0.01,0 -0.03,0 -0.05,0 -3,0 -5.62,-0.91 -7.24,-2.08 -1.67,-1.22 -2.16,-2.36 -2.16,-3.28 v -114.83 h -9.38 v 114.83 c 0,4.64 2.67,8.51 6.11,10.93 3.48,2.45 7.91,3.79 12.72,3.8 3.75,0 6.96,0.05 9.78,0.11 v 0 l 4.77,0.09 v -129.76 m -4.69,124.98 v 0" style="fill:#49bc39;fill-opacity:1;fill-rule:nonzero;stroke:none" id="path18"/><path d="m 2206.41,3786.29 h -9.38 v 114.83 c 0,0.9 -0.49,2.06 -2.17,3.28 -1.63,1.17 -4.27,2.08 -7.27,2.08 -0.02,0 -0.04,0 -0.05,0 -1.85,0 -3.56,0.01 -5.16,0.03 v -120.22 h -9.37 v 124.98 4.78 l 4.77,-0.09 c 2.82,-0.06 6,-0.11 9.76,-0.11 4.81,-0.01 9.25,-1.34 12.74,-3.8 3.45,-2.41 6.12,-6.28 6.13,-10.93 v -114.83" style="fill:#49bc39;fill-opacity:1;fill-rule:nonzero;stroke:none" id="path22"/><path d="m 2201.49,3540.73 h -0.03 v 0.65 l 0.03,-0.65 m -144.77,0 h -0.26 l 0.26,4.82 v -4.82 m 144.38,9.38 h -144.26 c -0.04,18 -6.07,28.39 -12.08,34.73 -6.03,6.32 -12.32,8.43 -12.67,8.53 v 0 0 h -0.01 l -0.02,0.01 c -18.98,5.79 -30.17,16.59 -36.18,27.61 -6.04,11.01 -7.12,21.99 -7.13,28.73 0,3.21 0.25,5.48 0.37,6.37 v 130.2 h 54.06 9.38 14.63 9.37 52.4 44.05 9.37 14.65 9.38 62.38 -279.67 v -37.34 h 9.38 v -93.55 l -0.06,-0.37 -0.04,-0.26 -0.11,-1.04 c -0.08,-0.92 -0.16,-2.3 -0.16,-4.01 -0.01,-5.73 0.97,-15.17 5.96,-24.21 5.03,-9.05 13.84,-17.93 30.73,-23.17 l -0.05,0.01 c 0.47,-0.14 8.21,-2.48 16.03,-10.28 7.83,-7.75 15.46,-21.14 15.42,-41.96 h 62.74 62.77 c 0,0 0,0.01 0,0.02 -0.05,20.81 7.58,34.2 15.42,41.95 7.82,7.79 15.56,10.13 16.03,10.27 l -0.05,-0.01 c 16.87,5.23 25.67,14.11 30.69,23.14 4.99,9.04 5.97,18.47 5.97,24.22 0,2.57 -0.2,4.39 -0.28,5.06 l -0.04,0.27 4.63,0.74 h 4.69 -4.69 l -4.63,-0.74 -0.06,0.37 v 93.55 h 9.38 v -92.86 c 0.12,-0.89 0.37,-3.17 0.37,-6.39 -0.01,-6.75 -1.09,-17.74 -7.13,-28.74 -6,-11 -17.18,-21.8 -36.14,-27.58 l -0.02,-0.01 -0.02,-0.01 v 0 l -0.13,-0.04 -0.69,-0.25 c -0.62,-0.25 -1.56,-0.66 -2.71,-1.27 -2.3,-1.22 -5.42,-3.24 -8.55,-6.35 -6.21,-6.27 -12.62,-16.75 -12.67,-35.32 0,-0.01 0,-0.02 0,-0.02 m -207.29,105.66 v 0" style="fill:#49bc39;fill-opacity:1;fill-rule:nonzero;stroke:none" id="path26"/><path d="m 2268.79,3748.95 v 0 h -22.83 c -0.28,3.03 -0.47,4.69 -0.47,4.69 v 0 l -1.66,-4.69 h -245.33 -9.38 v 37.34 h 279.67 v -32.65 -4.69 m -4.69,4.69 v 0 4.68 -4.68 m -265.6,23.27 v -18.59 h 260.91 v 18.59 H 1998.5" style="fill:#49bc39;fill-opacity:1;fill-rule:nonzero;stroke:none" id="path30"/><path d="m 2176.73,3559.3 c 0,0 -0.06,0.89 -0.18,2.56 -0.04,1.66 -0.45,4.14 -0.26,7.27 0,3.14 0.21,6.96 0.77,11.34 0.61,4.36 1.31,9.38 3.35,14.58 0.78,2.68 2.01,5.33 3.53,8.01 1.18,2.78 3.49,5.38 5.8,8.08 2.29,2.88 4.87,4.05 7.38,6.22 0.07,0.04 0.13,0.07 0.19,0.11 3.8,2.13 6.44,3.1 9.81,4.34 6.38,2.19 13.12,4.29 17.95,7.07 1.23,0.59 2.77,1.95 4.14,2.89 l 2.89,3.17 c 1.15,1.04 2.04,2.3 2.76,3.7 0.75,1.35 1.7,2.64 2.33,4.01 0.97,2.85 2.4,5.22 2.88,9.01 0.23,1.56 0.94,3.85 0.76,4.8 l 0.18,5.16 c 0.32,6.86 0.64,13.6 0.95,20.13 0.18,13.29 0.07,25.7 0.82,36.39 0.54,10.65 1.39,19.52 1.79,25.74 0.5,6.21 0.92,9.76 0.92,9.76 v 0 c 0,0 0.19,-1.66 0.47,-4.69 0.13,-1.41 0.27,-3.11 0.43,-5.07 0.39,-6.2 1.23,-15.08 1.74,-25.72 0.46,-10.61 1.58,-23.03 2.07,-36.34 -0.06,-6.78 -0.12,-13.78 -0.17,-20.89 l -0.11,-5.36 c -0.04,-2.59 -0.56,-3.7 -0.81,-5.63 -0.32,-3.3 -2,-7.4 -3.42,-11.23 -0.86,-1.83 -2.03,-3.43 -3.04,-5.15 -0.98,-1.74 -2.15,-3.34 -3.63,-4.72 -1.51,-1.52 -2.49,-2.7 -4.43,-4.46 -1.54,-1.02 -2.64,-2.04 -4.51,-3.04 -7.36,-4.21 -14.16,-5.37 -20.36,-7.37 -2.92,-0.78 -6.31,-2.29 -8.15,-2.92 -2.45,-1.82 -5.84,-3.31 -7.34,-5.28 -0.56,-0.61 -1.13,-1.2 -1.69,-1.79 -1.19,-1.25 -2.34,-2.54 -3.25,-4.2 -1.57,-2.17 -2.94,-4.4 -3.9,-6.78 -2.3,-4.55 -3.68,-9.16 -4.91,-13.21 -1.16,-4.1 -1.92,-7.77 -2.36,-10.82 -1.03,-6.09 -1.39,-9.67 -1.39,-9.67 v 0" style="fill:#49bc39;fill-opacity:1;fill-rule:nonzero;stroke:none" id="path34"/><path d="m 2061.41,3697.83 c -10.56,0 -19.12,8.55 -19.13,19.11 0.01,10.56 8.57,19.1 19.13,19.1 10.55,0 19.08,-8.55 19.1,-19.1 v 0 0 0 c 0,-10.55 -8.54,-19.11 -19.1,-19.11 m -0.79,9.41 0.79,-0.79 0.77,0.79 c 4.76,0.38 8.54,4.16 8.92,8.92 l 0.77,0.78 -0.77,0.77 c -0.37,4.76 -4.16,8.55 -8.92,8.93 l -0.77,0.78 -0.79,-0.78 c -4.75,-0.39 -8.54,-4.17 -8.93,-8.92 l -0.79,-0.78 0.79,-0.79 c 0.39,-4.74 4.18,-8.52 8.93,-8.91 m 19.89,9.7 v 0 0" style="fill:#49bc39;fill-opacity:1;fill-rule:nonzero;stroke:none" id="path38"/><path d="m 2061.41,3707.21 c -0.27,0 -0.53,0.01 -0.79,0.03 l -0.82,0.81 v 7.29 h -7.28 l -0.83,0.81 c -0.02,0.26 -0.03,0.52 -0.03,0.79 0,0.26 0.01,0.52 0.03,0.78 l 0.83,0.81 h 7.28 v 7.28 l 0.82,0.83 c 0.26,0.02 0.52,0.03 0.79,0.03 0.26,0 0.51,-0.01 0.77,-0.03 l 0.81,-0.83 v -7.28 h 7.28 l 0.83,-0.82 c 0.02,-0.26 0.03,-0.51 0.03,-0.77 0,-0.26 -0.01,-0.52 -0.03,-0.78 l -0.83,-0.82 h -7.28 v -7.29 l -0.81,-0.81 c -0.25,-0.03 -0.51,-0.03 -0.77,-0.03" style="fill:#49bc39;fill-opacity:1;fill-rule:nonzero;stroke:none" id="path40"/><path d="m 2061.41,3706.45 -0.79,0.79 c 0.26,-0.02 0.52,-0.03 0.79,-0.03 0.26,0 0.52,0 0.77,0.03 l -0.77,-0.79 m -9.72,9.7 -0.79,0.79 0.79,0.78 c -0.02,-0.26 -0.03,-0.52 -0.03,-0.78 0,-0.27 0.01,-0.53 0.03,-0.79 m 19.41,0.01 c 0.02,0.26 0.03,0.52 0.03,0.78 0,0.26 -0.01,0.51 -0.03,0.77 l 0.77,-0.77 -0.77,-0.78 m -10.48,10.48 0.79,0.78 0.77,-0.78 c -0.26,0.02 -0.51,0.03 -0.77,0.03 -0.27,0 -0.53,-0.01 -0.79,-0.03" style="fill:#15ac49;fill-opacity:1;fill-rule:nonzero;stroke:none" id="path42"/><path d="m 2189.69,3697.83 c -10.56,0 -19.08,8.56 -19.09,19.11 0.01,10.54 8.53,19.08 19.09,19.1 10.56,-0.02 19.12,-8.54 19.12,-19.1 v 0 0 0 c 0,-10.56 -8.56,-19.11 -19.12,-19.11 m -0.78,9.41 0.78,-0.79 0.79,0.79 c 4.76,0.39 8.53,4.17 8.92,8.91 l 0.8,0.79 -0.8,0.78 c -0.38,4.75 -4.16,8.53 -8.92,8.92 l -0.79,0.78 -0.77,-0.78 c -4.76,-0.37 -8.54,-4.16 -8.92,-8.92 l -0.78,-0.78 0.78,-0.79 c 0.38,-4.76 4.16,-8.53 8.91,-8.91 m 19.9,9.7 v 0 0" style="fill:#49bc39;fill-opacity:1;fill-rule:nonzero;stroke:none" id="path46"/><path d="m 2189.69,3707.21 c -0.26,0 -0.52,0 -0.78,0.03 l -0.8,0.81 v 7.29 h -7.29 l -0.82,0.81 c -0.02,0.26 -0.03,0.52 -0.03,0.79 0,0.26 0.01,0.52 0.03,0.78 l 0.82,0.81 h 7.29 v 7.28 l 0.81,0.83 c 0.25,0.02 0.51,0.03 0.77,0.03 0.26,0 0.53,-0.01 0.79,-0.03 l 0.83,-0.83 v -7.28 h 7.26 l 0.83,-0.81 c 0.02,-0.26 0.03,-0.52 0.03,-0.78 0,-0.27 -0.01,-0.53 -0.03,-0.79 l -0.83,-0.81 h -7.26 v -7.29 l -0.83,-0.81 c -0.26,-0.02 -0.53,-0.03 -0.79,-0.03" style="fill:#49bc39;fill-opacity:1;fill-rule:nonzero;stroke:none" id="path48"/><path d="m 2189.69,3706.45 -0.78,0.79 c 0.26,-0.03 0.52,-0.03 0.78,-0.03 0.26,0 0.53,0.01 0.79,0.03 l -0.79,-0.79 m 9.71,9.7 c 0.02,0.26 0.03,0.52 0.03,0.79 0,0.26 -0.01,0.52 -0.03,0.78 l 0.8,-0.78 -0.8,-0.79 m -19.4,0 -0.78,0.79 0.78,0.78 c -0.02,-0.26 -0.03,-0.52 -0.03,-0.78 0,-0.27 0.01,-0.53 0.03,-0.79 m 10.48,10.49 c -0.26,0.02 -0.53,0.03 -0.79,0.03 -0.26,0 -0.52,-0.01 -0.77,-0.03 l 0.77,0.78 0.79,-0.78" style="fill:#15ac49;fill-opacity:1;fill-rule:nonzero;stroke:none" id="path50"/><path d="m 2201.46,3500.54 h -23.01 l 2.08,9.37 h -102.65 l 0.98,-5.51 0.69,-3.86 h -22.83 v 40.19 4.82 4.56 h 0.12 144.26 0.36 v -8.73 -0.65 -35.51 -4.68 m -4.69,4.68 v 0 4.69 -4.69 m -130.68,35.51 v -30.82 h 125.99 v 30.82 h -125.99" style="fill:#49bc39;fill-opacity:1;fill-rule:nonzero;stroke:none" id="path54"/><path d="m 2169.54,3460.34 h -35.75 v 4.69 h -9.38 v -4.69 h -37.71 l -7.15,40.2 -0.69,3.86 -0.98,5.51 h 102.65 l -2.08,-9.37 -8.91,-40.2 m -80.47,40.2 5.48,-30.82 h 67.47 l 6.83,30.82 h -79.78 m -5.59,4.68 v -4.68 4.68" style="fill:#49bc39;fill-opacity:1;fill-rule:nonzero;stroke:none" id="path58"/><path d="m 2184.39,3309.49 c -3.53,0 -6.03,0.23 -6.93,0.32 l -2.12,-0.03 c -0.01,0 -0.02,0 -0.04,0 -11.19,0 -20.21,2.27 -27.31,6.08 -7.12,3.8 -12.24,9.11 -15.76,14.77 -7.04,11.37 -8.02,23.92 -8.05,30.94 0,2.7 0.16,4.6 0.23,5.31 v 93.46 4.69 h 9.38 v -4.69 -93.99 l -0.03,-0.28 -0.03,-0.23 -0.07,-0.88 c -0.05,-0.78 -0.1,-1.94 -0.1,-3.39 -0.01,-4.54 0.55,-11.89 3.23,-19.01 2.7,-7.15 7.29,-13.97 15.62,-18.43 5.57,-2.99 12.95,-4.97 22.93,-4.97 l 2.22,0.03 0.36,0.01 0.36,-0.04 0.35,-0.04 1.21,-0.1 c 1.06,-0.08 2.63,-0.16 4.55,-0.16 0.03,0 0.06,0 0.1,0 5.38,0 13.53,0.65 21.34,3.46 7.88,2.85 15.28,7.7 20.07,16.27 3.19,5.75 5.3,13.3 5.3,23.48 l -0.03,2.08 v 0.06 177.41 0 l -0.01,1.01 c 0,3.05 0.28,11.39 3.38,20.92 3.07,9.49 9.1,20.34 20.71,27.48 7.71,4.74 17.73,7.7 30.38,7.7 0.02,0 0.05,0 0.07,0 h 0.61 -0.04 c 0.47,0 7.18,-0.03 15.67,-3.06 8.46,-3.02 18.84,-9.24 25.66,-21.5 4.55,-8.15 7.44,-18.82 7.44,-32.55 v -148.45 h -9.38 v 148.45 c -0.11,23.32 -8.77,34.4 -17.8,40.65 -9.08,6.19 -19.17,7.02 -21.23,7.08 l -0.36,0.01 h -0.02 -0.02 -0.53 c -11.26,-0.01 -19.42,-2.56 -25.54,-6.32 -6.11,-3.76 -10.29,-8.8 -13.22,-14.2 -5.89,-10.78 -6.43,-22.99 -6.41,-26.21 l 0.01,-0.64 v -0.16 l 0.01,-0.11 v -177.4 l 0.03,-2.25 c 0,-11.47 -2.42,-20.73 -6.49,-28.04 -4.06,-7.3 -9.74,-12.55 -15.8,-16.17 -12.18,-7.24 -25.79,-8.34 -33.9,-8.37 m -55.29,57.14 v 0" style="fill:#49bc39;fill-opacity:1;fill-rule:nonzero;stroke:none" id="path60"/><path d="m 2161.91,3268.35 c -7.59,0 -15.13,0.23 -22.61,0.69 l 1.38,22.58 c 7.02,-0.43 14.1,-0.65 21.23,-0.65 7.36,0 14.66,0.23 21.9,0.69 v 0 l 1.42,-22.58 c -7.71,-0.49 -15.48,-0.73 -23.32,-0.73 m -68.21,6.34 c -15.2,2.87 -30.07,6.67 -44.54,11.35 l 6.96,21.53 c 13.57,-4.39 27.51,-7.96 41.77,-10.64 l -4.19,-22.24 m 137.12,0.14 -4.23,22.22 c 14.25,2.72 28.19,6.31 41.75,10.72 l 7,-21.51 c -14.46,-4.71 -29.32,-8.54 -44.52,-11.43 m -224.44,28.1 c -13.94,6.55 -27.4,13.95 -40.3,22.13 l 12.11,19.11 c 12.11,-7.68 24.73,-14.62 37.81,-20.76 l -9.62,-20.48 m 311.69,0.3 -9.66,20.45 c 13.04,6.17 25.64,13.12 37.73,20.82 l 12.15,-19.09 c -12.88,-8.2 -26.31,-15.61 -40.22,-22.18 m -389.19,48.83 c -11.83,9.76 -23.03,20.26 -33.54,31.41 l 16.47,15.52 c 9.86,-10.47 20.38,-20.32 31.47,-29.49 l -14.4,-17.44 m 466.54,0.4 -14.44,17.42 c 11.08,9.19 21.58,19.06 31.42,29.55 l 16.5,-15.49 c -10.49,-11.17 -21.67,-21.69 -33.48,-31.48 m -529.43,66.36 c -9.02,12.34 -17.28,25.27 -24.72,38.72 l 19.8,10.95 c 6.98,-12.61 14.73,-24.75 23.19,-36.33 l -18.27,-13.34 m 592.21,0.52 -18.3,13.31 c 8.45,11.61 16.18,23.76 23.14,36.4 l 19.82,-10.91 c -7.42,-13.47 -15.66,-26.43 -24.66,-38.8 m -636.58,79.71 c -5.64,14.16 -10.42,28.74 -14.28,43.7 l 21.91,5.65 c 3.62,-14.02 8.1,-27.7 13.39,-40.97 l -21.02,-8.38 m 680.83,0.69 -21.03,8.33 c 5.26,13.29 9.72,26.99 13.31,41.03 l 21.92,-5.61 c -3.83,-14.97 -8.59,-29.58 -14.2,-43.75 m -703.76,88.15 c -1.91,15.02 -2.91,30.32 -2.94,45.84 l 22.62,0.05 c 0.03,-14.58 0.97,-28.95 2.76,-43.04 l -22.44,-2.85 m 726.52,0.76 -22.45,2.81 c 1.76,14.09 2.67,28.46 2.67,43.04 l -0.01,1.43 22.63,0.09 v -1.52 c 0,-15.52 -0.97,-30.82 -2.84,-45.85 m -704.26,88.18 -22.45,2.76 c 1.89,15.37 4.73,30.45 8.46,45.17 l 21.93,-5.56 c -3.5,-13.81 -6.17,-27.95 -7.94,-42.37 m 681.63,2.13 c -1.86,14.4 -4.62,28.53 -8.21,42.31 l 21.9,5.7 c 3.83,-14.7 6.76,-29.76 8.74,-45.12 l -22.43,-2.89 m -660.46,81.3 -21.05,8.28 c 5.64,14.35 12.17,28.25 19.51,41.64 l 19.84,-10.87 c -6.88,-12.56 -13.01,-25.6 -18.3,-39.05 m 638.78,1.96 c -5.37,13.41 -11.56,26.39 -18.52,38.9 l 19.78,10.99 c 7.41,-13.33 14.01,-27.18 19.74,-41.47 l -21,-8.42 m -597.42,73.54 -18.32,13.27 c 9,12.43 18.77,24.28 29.22,35.47 l 16.53,-15.45 c -9.82,-10.5 -18.98,-21.62 -27.43,-33.29 m 555.64,1.65 c -8.51,11.61 -17.74,22.67 -27.62,33.11 l 16.44,15.55 c 10.52,-11.12 20.35,-22.91 29.43,-35.28 l -18.25,-13.38 m -496.85,61.24 -14.47,17.39 c 11.76,9.78 24.14,18.85 37.08,27.12 l 12.18,-19.06 c -12.13,-7.76 -23.75,-16.27 -34.79,-25.45 m 437.7,1.29 c -11.1,9.13 -22.77,17.57 -34.96,25.27 l 12.07,19.13 c 13,-8.21 25.44,-17.2 37.26,-26.93 l -14.37,-17.47 m -365.22,45.06 -9.7,20.43 c 13.78,6.54 28.03,12.25 42.69,17.06 l 7.05,-21.5 c -13.75,-4.51 -27.12,-9.86 -40.04,-15.99 m 292.41,0.89 c -12.96,6.06 -26.37,11.33 -40.15,15.75 l 6.92,21.54 c 14.69,-4.72 28.99,-10.34 42.81,-16.79 l -9.58,-20.5 m -210.65,25.91 -4.28,22.22 c 14.9,2.87 30.11,4.84 45.58,5.84 l 1.47,-22.58 c -14.52,-0.94 -28.8,-2.79 -42.77,-5.48 m 128.71,0.4 c -13.99,2.6 -28.27,4.36 -42.8,5.21 l 1.33,22.59 c 15.47,-0.91 30.7,-2.79 45.61,-5.56 l -4.14,-22.24" style="fill:#49bc39;fill-opacity:1;fill-rule:nonzero;stroke:none" id="path62"/><path d="m 560.313,1285.28 c -0.922,0 -1.84,0.28 -2.633,0.82 -107.649,72.94 -144.395,155.67 -144.301,232.89 0.043,77.19 36.121,148.39 71.953,200.37 35.867,51.98 71.645,84.8 71.813,84.96 v 0 c 0.898,0.83 2.035,1.24 3.168,1.24 1.195,0 2.386,-0.46 3.3,-1.36 112.117,-111.11 150.16,-205.95 150.153,-283.25 -0.004,-77.3 -37.996,-136.17 -75.684,-175.5 -37.723,-39.36 -75.285,-59.46 -75.559,-59.61 -0.695,-0.37 -1.457,-0.56 -2.21,-0.56 m -1.418,11.35 v -6.66 h 9.378 v 10.21 c 3.489,2.21 7.75,5.02 12.582,8.43 13.758,9.69 32.125,24.19 50.458,43.33 36.695,38.32 73.085,94.93 73.078,169.01 -0.004,73.35 -35.645,164.7 -144.153,273.37 -0.785,-0.76 -1.699,-1.65 -2.734,-2.68 -3.84,-3.82 -9.344,-9.45 -15.957,-16.69 -13.223,-14.48 -30.867,-35.36 -48.496,-60.92 -35.289,-51.11 -70.332,-120.85 -70.293,-195.04 0.09,-73.19 33.59,-151.2 136.137,-222.36 m 1.418,504.24 -3.301,-3.33 v 0 l 3.301,3.33" style="fill:#49bc39;fill-opacity:1;fill-rule:nonzero;stroke:none" id="path66"/><path d="m 568.273,1289.97 h -9.378 v 49.02 l 1.418,-1.38 3.273,3.36 v 0 l 3.269,3.36 -7.96,7.75 v 50.63 l 1.371,-1.38 3.32,3.32 v 0 l 3.316,3.31 -8.007,8.02 v 60.13 l 1.418,-1.38 3.273,3.35 v 0 l 3.269,3.36 -7.96,7.76 v 54.22 l 1.433,-1.38 3.258,3.37 v 0 l 3.25,3.38 -7.941,7.65 v 48.86 l 1.5,-1.39 3.191,3.44 v 0 l 3.187,3.43 -7.878,7.31 v 39.83 l 1.441,-1.38 3.25,3.38 v 0 l 3.25,3.38 -7.941,7.63 v 59.47 h 4.691 4.687 v -66.7 l -7.937,-7.63 6.496,-6.76 1.441,1.38 v -39.84 l -7.878,-7.31 6.378,-6.88 1.5,1.4 v -48.85 l -7.945,-7.66 6.508,-6.75 1.437,1.38 v -54.22 l -7.96,-7.76 6.542,-6.71 1.418,1.38 v -60.14 l -8.007,-8.02 6.636,-6.62 1.371,1.37 v -50.61 l -7.96,-7.76 6.542,-6.71 1.418,1.38 v -31.58 -10.21" style="fill:#49bc39;fill-opacity:1;fill-rule:nonzero;stroke:none" id="path70"/><path d="m 560.336,1656.54 -1.441,1.38 -45.875,44.13 3.25,3.38 3.25,3.38 39.375,-37.88 7.941,-7.63 -3.25,-3.38 -3.25,-3.38" style="fill:#49bc39;fill-opacity:1;fill-rule:nonzero;stroke:none" id="path74"/><path d="m 560.395,1603.91 -1.5,1.39 -67.825,62.94 3.188,3.44 3.187,3.43 61.45,-57.02 7.878,-7.31 -3.187,-3.43 -3.191,-3.44" style="fill:#49bc39;fill-opacity:1;fill-rule:nonzero;stroke:none" id="path78"/><path d="m 560.328,1542.04 -1.433,1.38 -88.457,85.24 3.253,3.38 3.254,3.37 81.95,-78.97 7.941,-7.65 -3.25,-3.38 -3.258,-3.37" style="fill:#49bc39;fill-opacity:1;fill-rule:nonzero;stroke:none" id="path82"/><path d="m 560.313,1474.73 -1.418,1.38 -99.317,96.78 3.274,3.35 3.269,3.36 92.774,-90.4 7.96,-7.76 -3.269,-3.36 -3.273,-3.35" style="fill:#49bc39;fill-opacity:1;fill-rule:nonzero;stroke:none" id="path86"/><path d="m 560.266,1401.33 -1.371,1.38 -120.922,121.14 6.632,6.63 114.29,-114.5 8.007,-8.02 -3.316,-3.31 -3.32,-3.32" style="fill:#49bc39;fill-opacity:1;fill-rule:nonzero;stroke:none" id="path90"/><path d="m 560.313,1337.61 -1.418,1.38 -99.317,96.79 3.274,3.36 3.269,3.36 92.774,-90.42 7.96,-7.75 -3.269,-3.36 -3.273,-3.36" style="fill:#49bc39;fill-opacity:1;fill-rule:nonzero;stroke:none" id="path94"/><path d="m 566.832,1649.31 -6.496,6.76 7.937,7.63 39.375,37.87 3.25,-3.37 3.25,-3.38 -45.875,-44.13 -1.441,-1.38" style="fill:#49bc39;fill-opacity:1;fill-rule:nonzero;stroke:none" id="path98"/><path d="m 566.773,1596.66 -6.378,6.88 7.878,7.31 61.45,57.02 3.187,-3.44 3.188,-3.43 -67.825,-62.94 -1.5,-1.4" style="fill:#49bc39;fill-opacity:1;fill-rule:nonzero;stroke:none" id="path102"/><path d="m 566.836,1534.8 -6.508,6.75 7.945,7.66 81.93,78.96 3.254,-3.37 3.254,-3.38 -88.438,-85.24 -1.437,-1.38" style="fill:#49bc39;fill-opacity:1;fill-rule:nonzero;stroke:none" id="path106"/><path d="m 566.855,1467.49 -6.542,6.71 7.96,7.76 92.774,90.4 3.269,-3.35 3.274,-3.36 -99.317,-96.78 -1.418,-1.38" style="fill:#49bc39;fill-opacity:1;fill-rule:nonzero;stroke:none" id="path110"/><path d="m 566.902,1394.09 -6.636,6.62 8.007,8.02 114.29,114.51 3.316,-3.31 3.316,-3.31 -120.922,-121.16 -1.371,-1.37" style="fill:#49bc39;fill-opacity:1;fill-rule:nonzero;stroke:none" id="path114"/><path d="m 566.855,1330.38 -6.542,6.71 7.96,7.76 92.774,90.41 3.269,-3.36 3.274,-3.36 -99.317,-96.78 -1.418,-1.38" style="fill:#49bc39;fill-opacity:1;fill-rule:nonzero;stroke:none" id="path118"/><path d="m 563.586,1179.27 c -7.59,0 -15.125,0.23 -22.606,0.69 l 1.375,22.58 c 7.02,-0.43 14.098,-0.64 21.231,-0.64 7.359,0 14.664,0.23 21.91,0.68 l 1.422,-22.58 c -7.719,-0.48 -15.496,-0.73 -23.332,-0.73 m -68.207,6.34 c -15.199,2.87 -30.066,6.67 -44.543,11.35 l 6.961,21.53 c 13.574,-4.39 27.516,-7.96 41.773,-10.64 l -4.191,-22.24 m 137.129,0.14 -4.235,22.22 c 14.25,2.72 28.184,6.31 41.75,10.73 l 7.004,-21.51 c -14.468,-4.71 -29.328,-8.55 -44.519,-11.44 m -224.449,28.1 c -13.938,6.55 -27.391,13.95 -40.297,22.13 l 12.113,19.11 c 12.109,-7.68 24.734,-14.62 37.805,-20.76 l -9.621,-20.48 m 311.687,0.3 -9.656,20.46 c 13.047,6.16 25.644,13.12 37.73,20.81 l 12.149,-19.08 c -12.879,-8.2 -26.309,-15.62 -40.223,-22.19 m -302.066,20.18 v 0 0 0 m -87.117,28.65 c -11.829,9.77 -23.028,20.26 -33.536,31.42 l 16.465,15.51 c 9.863,-10.47 20.379,-20.32 31.477,-29.48 l -14.406,-17.45 m 466.539,0.41 -14.438,17.41 c 11.082,9.19 21.578,19.06 31.422,29.54 l 16.492,-15.48 c -10.488,-11.18 -21.668,-21.69 -33.476,-31.47 m -529.43,66.35 c -9.016,12.35 -17.274,25.28 -24.711,38.73 l 19.797,10.95 c 6.976,-12.62 14.726,-24.75 23.187,-36.34 l -18.273,-13.34 m 592.211,0.52 -18.297,13.31 c 8.441,11.61 16.176,23.76 23.133,36.4 l 19.816,-10.91 c -7.418,-13.47 -15.656,-26.43 -24.652,-38.8 m -636.574,79.72 c -5.641,14.15 -10.422,28.74 -14.282,43.7 l 21.907,5.65 c 3.621,-14.03 8.101,-27.71 13.39,-40.98 l -21.015,-8.37 m 680.824,0.68 -21.035,8.33 c 5.265,13.29 9.722,26.99 13.312,41.03 l 21.918,-5.61 c -3.828,-14.97 -8.582,-29.58 -14.195,-43.75 m -703.754,88.15 c -1.91,15.02 -2.906,30.32 -2.941,45.85 l 22.625,0.04 c 0.031,-14.58 0.968,-28.94 2.757,-43.04 l -22.441,-2.85 m 726.508,0.76 -22.449,2.8 c 1.761,14.1 2.667,28.46 2.667,43.05 l -0.003,1.43 22.625,0.09 0.003,-1.52 c 0,-15.53 -0.968,-30.83 -2.843,-45.85 m -704.242,88.18 -22.457,2.76 c 1.886,15.37 4.73,30.45 8.464,45.18 l 21.93,-5.56 c -3.5,-13.81 -6.164,-27.95 -7.937,-42.38 m 681.613,2.13 c -1.863,14.4 -4.613,28.53 -8.203,42.32 l 21.894,5.7 c 3.828,-14.71 6.762,-29.77 8.746,-45.12 l -22.437,-2.9 m -660.449,81.3 -21.051,8.29 c 5.644,14.34 12.172,28.25 19.508,41.64 l 19.843,-10.87 c -6.882,-12.57 -13.004,-25.6 -18.3,-39.06 v 0 m 638.773,1.96 c -5.371,13.41 -11.562,26.39 -18.516,38.9 l 19.778,10.99 c 7.41,-13.33 14.011,-27.18 19.738,-41.47 l -21,-8.42 m -597.414,73.55 -18.324,13.27 c 9.004,12.43 18.769,24.27 29.23,35.46 l 16.524,-15.45 c -9.817,-10.5 -18.981,-21.62 -27.43,-33.28 v 0 m 555.641,1.64 c -8.516,11.61 -17.743,22.67 -27.618,33.11 l 16.434,15.55 c 10.523,-11.12 20.355,-22.91 29.43,-35.28 l -18.246,-13.38 m -496.848,61.24 -14.477,17.39 c 11.758,9.79 24.141,18.85 37.079,27.13 l 12.191,-19.06 c -12.141,-7.76 -23.762,-16.27 -34.793,-25.46 m 437.695,1.3 c -11.093,9.12 -22.769,17.56 -34.961,25.26 l 12.078,19.13 c 12.993,-8.2 25.434,-17.2 37.254,-26.92 l -14.371,-17.47 m -365.215,45.05 -9.703,20.44 c 13.778,6.54 28.028,12.25 42.688,17.05 l 7.047,-21.5 c -13.746,-4.5 -27.11,-9.85 -40.032,-15.99 m 292.407,0.89 c -12.965,6.06 -26.368,11.33 -40.153,15.76 l 6.914,21.54 c 14.7,-4.72 28.996,-10.34 42.817,-16.8 l -9.578,-20.5 m -210.649,25.92 -4.277,22.21 c 14.891,2.87 30.105,4.84 45.574,5.84 l 1.469,-22.57 c -14.524,-0.95 -28.793,-2.79 -42.766,-5.48 m 128.703,0.39 c -13.984,2.6 -28.265,4.36 -42.797,5.22 l 1.329,22.58 c 15.476,-0.91 30.703,-2.78 45.613,-5.56 l -4.145,-22.24" style="fill:#49bc39;fill-opacity:1;fill-rule:nonzero;stroke:none" id="path120"/><path d="m 3688.86,1342.14 c -23.32,0 -45.72,3.92 -66.58,11.16 l 6.62,7.66 c 18.88,-6.13 39.03,-9.45 59.96,-9.45 53.56,0 102,21.7 137.11,56.8 35.1,35.1 56.79,83.54 56.79,137.1 0,53.56 -21.69,102.01 -56.79,137.11 -15.49,15.48 -33.56,28.35 -53.53,37.91 l 4.79,8.1 c 68,-32.88 114.91,-102.52 114.91,-183.12 v 0 0 0 c 0,-112.26 -91.01,-203.27 -203.28,-203.27 m -86.58,19.31 c -68.96,32.51 -116.7,102.66 -116.71,183.96 0.01,101.99 75.14,186.44 173.05,201.05 l -3.11,-10 c -40.18,-6.97 -76.11,-26.3 -103.76,-53.94 -35.1,-35.1 -56.8,-83.55 -56.8,-137.11 0,-53.56 21.7,-102 56.8,-137.1 15.63,-15.63 33.91,-28.6 54.1,-38.18 l -3.57,-8.68 m 289.86,183.96 v 0 0" style="fill:#49bc39;fill-opacity:1;fill-rule:nonzero;stroke:none" id="path124"/><path d="m 3688.86,1368.46 c -16.58,0 -32.61,2.28 -47.83,6.55 l 6.82,7.88 c 13.12,-3.3 26.86,-5.05 41.01,-5.05 46.29,0 88.16,18.75 118.5,49.08 30.33,30.34 49.08,72.2 49.08,118.49 0,46.29 -18.75,88.16 -49.08,118.5 -13.93,13.92 -30.28,25.41 -48.38,33.76 l 4.79,8.1 c 60.29,-28.2 102.05,-89.4 102.05,-160.36 v 0 0 0 c 0,-97.72 -79.23,-176.94 -176.96,-176.95 m -76.56,17.38 c -59.39,28.55 -100.38,89.27 -100.39,159.57 0.01,84.3 58.95,154.83 137.86,172.62 l -3.24,-10.43 c -29.26,-7.62 -55.41,-22.94 -76.16,-43.69 -30.33,-30.34 -49.08,-72.21 -49.08,-118.5 0,-46.29 18.75,-88.15 49.08,-118.49 13.18,-13.18 28.54,-24.17 45.49,-32.39 l -3.56,-8.69 m 253.52,159.57 v 0 0" style="fill:#49bc39;fill-opacity:1;fill-rule:nonzero;stroke:none" id="path128"/><path d="m 3593.07,1321.98 c -0.84,0 -1.69,0.23 -2.45,0.69 -1.95,1.2 -2.75,3.66 -1.88,5.78 l 13.54,33 3.57,8.68 6.45,15.71 3.56,8.69 49.63,120.9 h -72.41 c -1.49,0 -2.9,0.71 -3.78,1.91 -0.88,1.19 -1.14,2.75 -0.7,4.17 l 57.93,186.09 3.24,10.43 5.74,18.43 3.11,10 5.95,19.1 c 0.61,1.96 2.42,3.29 4.47,3.29 h 123.81 c 1.69,0 3.24,-0.9 4.07,-2.36 0.84,-1.47 0.83,-3.26 -0.03,-4.71 l -19.66,-33.25 -4.79,-8.1 -8.67,-14.66 -4.79,-8.1 -52.76,-89.21 h 126.26 c 1.84,0 3.5,-1.07 4.26,-2.74 0.77,-1.67 0.49,-3.63 -0.71,-5.02 l -188.18,-217.81 -6.82,-7.88 -12.13,-14.05 -6.62,-7.66 -25.66,-29.7 c -0.91,-1.06 -2.22,-1.62 -3.55,-1.62 m 79.42,437.49 -73.05,-234.67 h 73.04 c 1.57,0 3.02,-0.77 3.89,-2.07 0.88,-1.31 1.04,-2.94 0.45,-4.4 l -68.48,-166.83 213.89,247.58 h -124.22 c -1.69,0 -3.24,0.9 -4.07,2.37 -0.84,1.46 -0.83,3.25 0.03,4.7 l 90.66,153.32 h -112.14 m -3.45,4.69 v -4.69 4.69" style="fill:#49bc39;fill-opacity:1;fill-rule:nonzero;stroke:none" id="path132"/><path d="m 3688.88,1179.28 c -7.59,0 -15.13,0.23 -22.61,0.68 l 1.38,22.59 c 7.02,-0.43 14.1,-0.65 21.23,-0.65 7.36,0 14.66,0.23 21.9,0.69 l 1.42,-22.58 c -7.71,-0.49 -15.49,-0.73 -23.32,-0.73 m -68.21,6.34 c -15.2,2.86 -30.07,6.67 -44.54,11.35 l 6.96,21.52 c 13.57,-4.38 27.51,-7.95 41.77,-10.64 l -4.19,-22.23 m 137.12,0.13 -4.23,22.23 c 14.25,2.71 28.19,6.31 41.75,10.72 l 7,-21.51 c -14.46,-4.71 -29.32,-8.54 -44.52,-11.44 m -224.44,28.11 c -13.94,6.54 -27.39,13.95 -40.3,22.13 l 12.12,19.11 c 12.11,-7.68 24.73,-14.63 37.8,-20.77 l -9.62,-20.47 m 311.69,0.29 -9.66,20.46 c 13.04,6.16 25.64,13.12 37.73,20.82 l 12.15,-19.09 c -12.88,-8.2 -26.31,-15.62 -40.22,-22.19 m -302.07,20.18 v 0 0 0 m -87.12,28.66 c -11.82,9.76 -23.02,20.26 -33.53,31.41 l 16.46,15.52 c 9.87,-10.47 20.38,-20.32 31.48,-29.49 l -14.41,-17.44 m 466.54,0.4 -14.44,17.42 c 11.08,9.18 21.58,19.05 31.42,29.54 l 16.5,-15.49 c -10.49,-11.17 -21.67,-21.68 -33.48,-31.47 m -529.43,66.36 c -9.01,12.34 -17.27,25.27 -24.71,38.72 l 19.8,10.95 c 6.98,-12.62 14.73,-24.75 23.18,-36.33 l -18.27,-13.34 m 592.21,0.51 -18.3,13.31 c 8.45,11.61 16.18,23.76 23.14,36.4 l 19.82,-10.91 c -7.42,-13.47 -15.66,-26.43 -24.66,-38.8 m -636.57,79.72 c -5.64,14.16 -10.42,28.74 -14.28,43.7 l 21.91,5.65 c 3.62,-14.02 8.1,-27.7 13.38,-40.97 h 0.01 l -21.02,-8.38 m 680.82,0.68 -21.03,8.33 c 5.26,13.29 9.72,26.99 13.31,41.03 l 21.92,-5.61 c -3.83,-14.97 -8.58,-29.58 -14.2,-43.75 m -7.72,49.36 v 0 0 0 m -696.03,38.8 c -1.91,15.02 -2.91,30.32 -2.94,45.84 l 22.63,0.05 c 0.03,-14.59 0.96,-28.95 2.75,-43.04 l -22.44,-2.85 m 726.51,0.75 -22.45,2.8 c 1.76,14.1 2.67,28.46 2.67,43.05 v 1.42 l 22.62,0.1 v -1.52 c 0,-15.52 -0.96,-30.83 -2.84,-45.85 m -704.24,88.19 -22.46,2.76 c 1.89,15.37 4.73,30.44 8.47,45.17 l 21.93,-5.56 c -3.51,-13.81 -6.17,-27.95 -7.94,-42.37 m 681.61,2.11 c -1.86,14.41 -4.62,28.54 -8.2,42.32 l 21.89,5.7 c 3.83,-14.7 6.76,-29.76 8.75,-45.12 l -22.44,-2.9 m -660.45,81.31 -21.05,8.29 c 5.65,14.34 12.17,28.25 19.51,41.64 l 19.84,-10.87 c -6.88,-12.56 -13,-25.6 -18.3,-39.06 m 638.77,1.96 c -5.37,13.4 -11.56,26.39 -18.51,38.9 l 19.77,10.99 c 7.41,-13.33 14.02,-27.18 19.74,-41.47 l -21,-8.42 m -597.41,73.55 -18.32,13.27 c 9,12.43 18.77,24.27 29.23,35.46 l 16.52,-15.45 c -9.81,-10.5 -18.98,-21.61 -27.43,-33.28 m 555.64,1.64 c -8.52,11.61 -17.75,22.67 -27.62,33.11 l 16.43,15.55 c 10.53,-11.13 20.36,-22.91 29.43,-35.29 l -18.24,-13.37 m -496.85,61.24 -14.47,17.39 c 11.76,9.79 24.14,18.85 37.08,27.13 l 12.19,-19.06 c -12.14,-7.76 -23.76,-16.27 -34.8,-25.46 m 437.69,1.29 c -11.09,9.13 -22.76,17.57 -34.95,25.26 l 12.07,19.13 c 13,-8.2 25.44,-17.2 37.26,-26.92 l -14.38,-17.47 m -365.21,45.06 -9.7,20.44 c 13.78,6.54 28.03,12.25 42.69,17.05 l 7.05,-21.5 c -13.75,-4.5 -27.11,-9.85 -40.04,-15.99 m 292.41,0.89 c -12.97,6.06 -26.37,11.33 -40.15,15.75 l 6.91,21.54 c 14.7,-4.71 29,-10.34 42.82,-16.8 l -9.58,-20.49 m -210.65,25.92 v 0 l -4.28,22.21 c 14.9,2.87 30.11,4.84 45.58,5.84 l 1.47,-22.57 c -14.53,-0.95 -28.8,-2.79 -42.77,-5.48 m 128.7,0.39 c -13.98,2.6 -28.26,4.36 -42.79,5.22 l 1.33,22.58 c 15.47,-0.91 30.7,-2.78 45.61,-5.56 l -4.15,-22.24" style="fill:#49bc39;fill-opacity:1;fill-rule:nonzero;stroke:none" id="path134"/><path d="m 3580.4,528.762 h -76.71 v 4.687 l 4.05,2.371 -4.05,-2.371 v -4.687 c -1.66,0 -3.2,0.879 -4.04,2.308 l -50.14,85.539 c -0.74,1.25 -0.85,2.762 -0.31,4.11 0.54,1.351 1.67,2.359 3.07,2.761 l 72.24,20.649 c 0.43,0.121 0.86,0.18 1.29,0.18 1.72,0 3.35,-0.95 4.17,-2.539 l 54.6,-106.18 c 0.74,-1.449 0.68,-3.199 -0.17,-4.59 -0.85,-1.391 -2.37,-2.238 -4,-2.238 m -74.02,9.367 h 66.34 l -49.33,95.93 -62.73,-17.93 45.72,-78" style="fill:#49bc39;fill-opacity:1;fill-rule:nonzero;stroke:none" id="path138"/><path d="m 3397.53,403.398 c -1.21,0 -2.4,0.473 -3.29,1.34 l -70.79,69.321 c -0.9,0.871 -1.41,2.089 -1.41,3.339 0,1.262 0.51,2.481 1.41,3.352 l 70.79,69.32 c 0.89,0.871 2.08,1.34 3.29,1.34 0.61,0 1.22,-0.121 1.81,-0.371 1.73,-0.73 2.87,-2.437 2.87,-4.32 v -23.34 h 178.19 c 1.55,0 3,-0.758 3.87,-2.047 0.88,-1.281 1.06,-2.91 0.49,-4.352 l -32.45,-82.582 c -0.7,-1.789 -2.44,-2.976 -4.36,-2.976 H 3402.21 V 408.09 c 0,-1.879 -1.14,-3.59 -2.87,-4.32 -0.59,-0.25 -1.2,-0.372 -1.81,-0.372 m -4.7,132.172 -59.4,-58.16 59.4,-58.168 v 16.867 c 0,1.243 0.5,2.442 1.37,3.321 0.88,0.871 2.08,1.371 3.32,1.371 h 147.23 l 28.77,73.211 h -176 v 4.679 h 4.69 -4.69 v -4.679 c -1.24,0 -2.44,0.5 -3.32,1.367 -0.87,0.871 -1.37,2.082 -1.37,3.312 v 16.879" style="fill:#49bc39;fill-opacity:1;fill-rule:nonzero;stroke:none" id="path142"/><path d="m 3271.74,661.59 c -1.32,0 -2.59,0.558 -3.48,1.551 l -58.07,64.14 c -1.55,1.707 -1.62,4.297 -0.18,6.09 l 70.29,87.098 c 0.89,1.101 2.23,1.742 3.64,1.742 0.01,0 0.01,0 0.02,0 1.42,0 2.77,-0.652 3.65,-1.762 l 52.87,-66.449 -3.66,-2.918 3.66,2.918 c 1.34,-1.68 1.36,-4.059 0.06,-5.77 l -65.08,-84.8 c -0.85,-1.098 -2.14,-1.782 -3.53,-1.828 -0.07,0 -0.13,-0.012 -0.19,-0.012 m 12.18,148.441 -64.09,-79.429 51.61,-57 59.43,77.429 -46.95,59" style="fill:#49bc39;fill-opacity:1;fill-rule:nonzero;stroke:none" id="path146"/><path d="m 3484.03,647.199 c -0.2,0 -0.41,0.012 -0.61,0.039 l -98.19,13.231 c -1.86,0.25 -3.41,1.613 -3.9,3.422 -0.49,1.82 0.16,3.769 1.65,4.918 l 18.41,14.351 -109.52,140.539 c -1.1,1.422 -1.3,3.321 -0.52,4.942 0.79,1.609 2.41,2.629 4.2,2.629 l 104.47,0.3 c 0,0 0,0 0.01,0 1.45,0 2.8,-0.66 3.7,-1.808 l 70.19,-90.082 18.42,14.332 c 0.83,0.66 1.85,0.988 2.88,0.988 0.78,0 1.57,-0.199 2.29,-0.602 1.64,-0.918 2.57,-2.738 2.36,-4.609 l -11.17,-98.437 c -0.14,-1.243 -0.79,-2.403 -1.78,-3.172 -0.82,-0.641 -1.85,-0.981 -2.89,-0.981 m -72.36,38.02 c 0.75,-0.969 1.1,-2.227 0.95,-3.457 -0.15,-1.223 -0.8,-2.364 -1.77,-3.121 l -13.31,-10.371 82.38,-11.098 9.38,82.598 -13.31,-10.372 c -0.86,-0.66 -1.88,-0.988 -2.88,-0.988 -1.4,0 -2.78,0.629 -3.7,1.809 l -71.67,91.972 -92.6,-0.269 106.53,-136.703 -3.7,-2.879 3.7,2.879" style="fill:#49bc39;fill-opacity:1;fill-rule:nonzero;stroke:none" id="path150"/><path d="m 3299.22,427 h -138.63 c -1.93,0 -3.66,1.191 -4.37,2.98 l -32.46,82.579 c -0.57,1.441 -0.38,3.07 0.49,4.351 0.87,1.281 2.32,2.051 3.87,2.051 h 171.1 v -4.691 4.691 c 1.23,0 2.44,-0.5 3.31,-1.379 0.88,-0.871 1.38,-2.07 1.38,-3.312 v -82.579 c 0,-1.23 -0.5,-2.441 -1.38,-3.312 -0.87,-0.879 -2.08,-1.379 -3.31,-1.379 m -164.22,82.582 28.78,-73.203 h 130.75 v 73.203 H 3135" style="fill:#49bc39;fill-opacity:1;fill-rule:nonzero;stroke:none" id="path154"/><path d="m 3204.82,524.328 h -76.7 c -1.66,0 -3.18,0.871 -4.03,2.293 -0.84,1.43 -0.88,3.18 -0.08,4.641 l 50.33,92.269 -24.79,7.789 c -1.79,0.571 -3.07,2.129 -3.26,4.008 -0.19,1.871 0.75,3.66 2.4,4.57 l 81.91,45.243 c 0.7,0.379 1.49,0.578 2.28,0.578 0.45,0 0.9,-0.071 1.34,-0.199 1.2,-0.36 2.22,-1.2 2.8,-2.309 l 43.52,-82.82 c 0.87,-1.672 0.66,-3.711 -0.53,-5.161 -0.91,-1.101 -2.25,-1.71 -3.63,-1.71 -0.45,0 -0.9,0.062 -1.34,0.191 l -19.75,5.918 -46.51,-73.129 c -0.86,-1.352 -2.36,-2.172 -3.96,-2.172 m -22.22,106.434 c 1.34,-0.422 2.41,-1.41 2.94,-2.723 0.53,-1.297 0.44,-2.758 -0.23,-4 l -49.29,-90.34 h 66.23 l 47.04,73.961 c 0.87,1.371 2.38,2.172 3.95,2.172 0.45,0 0.9,-0.07 1.35,-0.203 l 12.46,-3.731 -36.1,68.723 -68.15,-37.641 19.8,-6.218 -1.41,-4.473 1.41,4.473" style="fill:#49bc39;fill-opacity:1;fill-rule:nonzero;stroke:none" id="path158"/><path d="m 3354.27,251.34 c -7.59,0 -15.13,0.23 -22.61,0.68 l 1.38,22.589 c 7.02,-0.429 14.1,-0.648 21.23,-0.648 7.36,0 14.66,0.23 21.9,0.687 l 1.43,-22.578 c -7.72,-0.492 -15.5,-0.73 -23.33,-0.73 m -68.21,6.34 c -15.2,2.871 -30.07,6.672 -44.54,11.351 l 6.96,21.528 c 13.57,-4.387 27.51,-7.957 41.77,-10.649 l -4.19,-22.23 m 137.13,0.14 -4.24,22.219 c 14.25,2.711 28.19,6.313 41.75,10.723 v 0.008 l 7.01,-21.52 c -14.47,-4.711 -29.33,-8.539 -44.52,-11.43 m -224.45,28.102 c -13.94,6.547 -27.39,13.949 -40.3,22.129 l 12.12,19.109 c 12.11,-7.68 24.73,-14.621 37.8,-20.769 l -9.62,-20.469 m 311.69,0.297 -9.66,20.453 c 13.05,6.168 25.64,13.117 37.73,20.816 l 12.15,-19.09 c -12.88,-8.199 -26.31,-15.617 -40.22,-22.179 m -389.19,48.832 c -11.82,9.769 -23.02,20.258 -33.53,31.418 l 16.47,15.511 c 9.86,-10.468 20.37,-20.32 31.47,-29.492 v 0 l -14.41,-17.437 m 466.54,0.398 -14.44,17.422 c 11.09,9.188 21.58,19.051 31.42,29.539 l 16.5,-15.48 c -10.49,-11.18 -21.67,-21.692 -33.48,-31.481 m -529.43,66.36 c -9.01,12.339 -17.27,25.281 -24.71,38.722 l 19.8,10.949 c 6.98,-12.609 14.73,-24.75 23.18,-36.332 h 0.01 l -18.28,-13.339 m 592.21,0.523 -18.3,13.309 c 8.45,11.597 16.18,23.757 23.14,36.398 l 19.82,-10.91 c -7.42,-13.481 -15.66,-26.43 -24.66,-38.797 m -636.57,79.719 c -5.64,14.148 -10.42,28.738 -14.28,43.687 l 21.91,5.653 c 3.62,-14.02 8.1,-27.7 13.39,-40.969 l -21.02,-8.371 m 680.83,0.679 -21.04,8.329 c 5.26,13.293 9.72,26.98 13.31,41.023 l 21.92,-5.602 c -3.83,-14.98 -8.58,-29.582 -14.19,-43.75 m -703.76,88.149 c -1.91,15.019 -2.91,30.32 -2.94,45.84 l 22.63,0.051 c 0.03,-14.579 0.96,-28.942 2.75,-43.04 v 0 l -22.44,-2.851 m 726.51,0.75 -22.45,2.812 c 1.76,14.098 2.67,28.457 2.67,43.039 v 1.43 l 22.62,0.09 v -1.52 c 0,-15.519 -0.96,-30.82 -2.84,-45.851 m -704.24,88.191 -22.46,2.762 c 1.89,15.367 4.73,30.449 8.47,45.168 l 21.93,-5.559 c -3.51,-13.812 -6.17,-27.949 -7.94,-42.371 m 681.61,2.121 c -1.86,14.411 -4.61,28.528 -8.2,42.321 l 21.89,5.699 c 3.83,-14.711 6.76,-29.77 8.75,-45.121 l -22.44,-2.899 m -660.45,81.309 -21.05,8.281 c 5.65,14.348 12.17,28.25 19.51,41.649 l 19.84,-10.879 c -6.88,-12.563 -13,-25.602 -18.3,-39.051 m 638.77,1.949 c -5.37,13.41 -11.56,26.403 -18.51,38.903 l 19.77,10.988 c 7.42,-13.328 14.02,-27.18 19.74,-41.469 l -21,-8.422 m -597.41,73.551 -18.32,13.27 c 9,12.441 18.77,24.281 29.23,35.468 l 16.52,-15.449 c -9.81,-10.5 -18.98,-21.617 -27.43,-33.289 m 555.64,1.641 c -8.52,11.609 -17.74,22.668 -27.62,33.109 l 16.44,15.551 c 10.52,-11.121 20.35,-22.91 29.42,-35.281 l -18.24,-13.379 m -496.85,61.25 -14.47,17.39 c 11.76,9.789 24.14,18.848 37.08,27.117 l 12.19,-19.046 c -12.14,-7.774 -23.76,-16.27 -34.8,-25.461 m 437.7,1.289 c -11.1,9.121 -22.77,17.562 -34.96,25.261 l 12.07,19.129 c 13,-8.199 25.44,-17.199 37.26,-26.922 l -14.37,-17.468 m -365.22,45.062 -9.7,20.438 c 13.78,6.539 28.03,12.242 42.69,17.05 l 7.05,-21.5 c -13.75,-4.511 -27.11,-9.859 -40.04,-15.988 m 292.41,0.879 c -12.96,6.059 -26.37,11.328 -40.15,15.758 l 6.92,21.543 c 14.69,-4.723 28.99,-10.34 42.81,-16.801 l -9.58,-20.5 m -210.65,25.918 -4.28,22.223 c 14.9,2.867 30.11,4.828 45.58,5.84 l 1.47,-22.582 c -14.52,-0.942 -28.8,-2.79 -42.77,-5.481 m 128.71,0.391 c -13.99,2.609 -28.27,4.371 -42.8,5.218 l 1.33,22.594 c 15.48,-0.91 30.7,-2.793 45.61,-5.57 l -4.14,-22.242" style="fill:#49bc39;fill-opacity:1;fill-rule:nonzero;stroke:none" id="path160"/><path d="m 1128.16,423 h -9.37 v 52.59 h 9.37 V 423 m -307.887,0 h -9.375 v 52.59 h 9.375 V 423 m 307.887,85.629 h -9.37 v 218.41 h 9.37 v -218.41 m -307.887,0 h -9.375 v 218.41 h 9.375 v -218.41 m 307.887,251.453 h -9.37 v 51.879 h 9.37 v -51.879 m -307.887,0 h -9.375 v 51.879 h 9.375 v -51.879" style="fill:#49bc39;fill-opacity:1;fill-rule:nonzero;stroke:none" id="path164"/><path d="M 1142.83,811.961 H 796.211 c -1.234,0 -2.441,0.5 -3.316,1.371 -0.872,0.879 -1.372,2.078 -1.372,3.316 v 45.25 c 0,1.243 0.5,2.442 1.372,3.321 0.875,0.871 2.082,1.371 3.316,1.371 h 346.619 c 1.24,0 2.44,-0.5 3.32,-1.371 0.87,-0.879 1.37,-2.078 1.37,-3.321 v -45.25 c 0,-1.238 -0.5,-2.437 -1.37,-3.316 -0.88,-0.871 -2.08,-1.371 -3.32,-1.371 m 0,4.687 v 0 4.692 -4.692 M 800.898,857.211 V 821.34 h 337.242 v 35.871 H 800.898" style="fill:#49bc39;fill-opacity:1;fill-rule:nonzero;stroke:none" id="path168"/><path d="M 1133.21,368.371 H 805.84 c -1.235,0 -2.442,0.5 -3.317,1.367 -0.871,0.871 -1.371,2.082 -1.371,3.313 v 45.258 c 0,1.23 0.5,2.441 1.371,3.312 0.875,0.879 2.082,1.379 3.317,1.379 h 5.058 9.375 298.517 9.37 5.05 c 1.24,0 2.44,-0.5 3.32,-1.379 0.87,-0.871 1.37,-2.082 1.37,-3.312 v -45.258 c 0,-1.231 -0.5,-2.442 -1.37,-3.313 -0.88,-0.867 -2.08,-1.367 -3.32,-1.367 m 0,4.68 v 0 4.687 -4.687 m -322.683,40.57 v -35.883 h 318.003 v 35.883 H 810.527" style="fill:#49bc39;fill-opacity:1;fill-rule:nonzero;stroke:none" id="path172"/><path d="M 1145.64,727.039 H 793.398 c -1.234,0 -2.441,0.5 -3.316,1.371 -0.871,0.871 -1.371,2.082 -1.371,3.32 v 23.661 c 0,1.238 0.5,2.449 1.371,3.32 0.875,0.871 2.082,1.371 3.316,1.371 h 17.5 9.375 298.517 9.37 17.48 c 1.24,0 2.45,-0.5 3.32,-1.371 0.87,-0.871 1.37,-2.082 1.37,-3.32 V 731.73 c 0,-1.238 -0.5,-2.449 -1.37,-3.32 -0.87,-0.871 -2.08,-1.371 -3.32,-1.371 m 0,4.691 v 0 4.68 -4.68 M 798.086,750.711 V 736.41 h 342.874 v 14.301 H 798.086" style="fill:#49bc39;fill-opacity:1;fill-rule:nonzero;stroke:none" id="path176"/><path d="M 1145.64,475.59 H 793.398 c -1.234,0 -2.441,0.5 -3.316,1.371 -0.871,0.867 -1.371,2.078 -1.371,3.32 v 23.66 c 0,1.231 0.5,2.438 1.371,3.309 0.875,0.879 2.082,1.379 3.316,1.379 h 17.5 9.375 298.517 9.37 17.48 c 1.24,0 2.45,-0.5 3.32,-1.379 0.87,-0.871 1.37,-2.078 1.37,-3.309 v -23.66 c 0,-1.242 -0.5,-2.453 -1.37,-3.32 -0.87,-0.871 -2.08,-1.371 -3.32,-1.371 m 0,4.691 v 0 4.68 -4.68 M 798.086,499.25 V 484.961 H 1140.96 V 499.25 H 798.086" style="fill:#49bc39;fill-opacity:1;fill-rule:nonzero;stroke:none" id="path180"/><path d="m 969.512,521.199 c -51.227,0 -92.711,41.531 -92.715,92.75 0.004,51.223 41.488,92.75 92.715,92.75 51.218,0 92.768,-41.519 92.778,-92.75 v 0 0 0 c -0.01,-51.23 -41.56,-92.75 -92.778,-92.75 m 0,176.133 C 946.477,697.32 925.672,688 910.578,672.91 c -15.09,-15.109 -24.402,-35.922 -24.406,-58.961 0.004,-23.039 9.316,-43.847 24.406,-58.961 15.094,-15.09 35.899,-24.41 58.934,-24.418 23.035,0.008 43.858,9.328 58.968,24.43 15.1,15.102 24.43,35.922 24.43,58.949 0,23.039 -9.33,43.852 -24.43,58.961 -15.11,15.09 -35.933,24.41 -58.968,24.422 m 92.778,-83.383 v 0 0" style="fill:#49bc39;fill-opacity:1;fill-rule:nonzero;stroke:none" id="path184"/><path d="m 969.535,548.078 c -0.004,0 -0.004,0 -0.008,0 -15.461,0 -30.277,8.774 -37.277,23.692 -2.629,5.609 -3.867,11.562 -3.867,17.402 0.004,6.09 1.344,12.078 3.855,17.508 l 0.012,0.031 33.016,70.418 c 0.777,1.652 2.422,2.691 4.246,2.691 1.824,0 3.468,-1.039 4.246,-2.691 l 33.022,-70.418 -4.24,-2 4.25,1.988 c 2.63,-5.629 3.89,-11.578 3.89,-17.429 0,-15.461 -8.77,-30.29 -23.711,-37.29 -5.633,-2.64 -11.586,-3.902 -17.434,-3.902 M 940.75,602.75 c -1.945,-4.211 -2.992,-8.871 -2.992,-13.578 0.004,-4.531 0.957,-9.09 2.98,-13.422 5.403,-11.531 16.84,-18.281 28.789,-18.289 4.516,0 9.09,0.961 13.465,3.008 11.543,5.402 18.298,16.851 18.308,28.801 0,4.519 -0.96,9.089 -3.007,13.46 v 0 l -28.781,61.36 -28.774,-61.371 0.012,0.031" style="fill:#49bc39;fill-opacity:1;fill-rule:nonzero;stroke:none" id="path188"/><path d="m 969.531,251.34 c -7.59,0 -15.125,0.23 -22.601,0.68 l 1.375,22.589 c 7.019,-0.429 14.097,-0.648 21.226,-0.648 7.36,0 14.668,0.23 21.91,0.687 l 1.422,-22.578 c -7.718,-0.492 -15.496,-0.73 -23.332,-0.73 m -68.203,6.34 c -15.199,2.871 -30.066,6.672 -44.543,11.351 l 6.961,21.52 c 13.574,-4.379 27.516,-7.949 41.774,-10.641 l -4.192,-22.23 m 137.122,0.14 -4.23,22.219 c 14.25,2.711 28.18,6.313 41.75,10.731 v -0.008 l 7,-21.512 c -14.46,-4.711 -29.33,-8.539 -44.52,-11.43 m -224.442,28.102 c -13.938,6.547 -27.391,13.949 -40.297,22.129 l 12.113,19.109 c 12.114,-7.68 24.735,-14.621 37.805,-20.769 l -9.621,-20.469 m 311.682,0.297 -9.66,20.453 c 13.05,6.156 25.65,13.117 37.73,20.816 l 12.15,-19.09 c -12.88,-8.199 -26.31,-15.617 -40.22,-22.179 m -389.178,48.832 c -11.824,9.769 -23.028,20.258 -33.535,31.418 l 16.468,15.511 c 9.864,-10.468 20.375,-20.32 31.473,-29.492 l -14.406,-17.437 m 466.538,0.398 -14.44,17.422 c 11.08,9.188 21.57,19.051 31.42,29.539 l 16.49,-15.488 c -10.49,-11.172 -21.67,-21.684 -33.47,-31.473 m -529.425,66.36 c -9.016,12.339 -17.273,25.273 -24.711,38.722 l 19.801,10.949 c 6.976,-12.609 14.723,-24.75 23.18,-36.332 l -18.27,-13.339 m 592.195,0.523 -18.29,13.297 c 8.44,11.609 16.17,23.769 23.13,36.41 l 19.82,-10.918 c -7.42,-13.473 -15.66,-26.422 -24.66,-38.789 m -636.558,79.719 c -5.637,14.148 -10.418,28.738 -14.278,43.687 l 21.907,5.653 c 3.621,-14.02 8.101,-27.7 13.386,-40.969 l -21.015,-8.371 m 680.818,0.668 -21.04,8.332 c 5.27,13.289 9.73,26.988 13.32,41.031 l 21.92,-5.613 c -3.84,-14.969 -8.59,-29.578 -14.2,-43.75 m -703.748,88.16 c -1.906,15.019 -2.902,30.32 -2.937,45.84 l 22.625,0.051 c 0.031,-14.579 0.968,-28.95 2.757,-43.04 l -22.445,-2.851 m 726.498,0.75 -22.45,2.801 c 1.77,14.101 2.67,28.468 2.67,43.05 v 1.418 l 22.62,0.102 0.01,-1.52 c 0,-15.519 -0.97,-30.832 -2.85,-45.851 M 628.602,659.82 v 0 l -22.457,2.762 c 1.89,15.367 4.73,30.449 8.464,45.168 l 21.93,-5.559 c -3.5,-13.812 -6.168,-27.949 -7.937,-42.371 m 681.598,2.11 c -1.86,14.41 -4.61,28.539 -8.2,42.32 l 21.9,5.699 c 3.82,-14.699 6.76,-29.758 8.74,-45.117 l -22.44,-2.902 m -8.2,42.32 v 0 0 0 m -652.234,38.988 -21.051,8.293 c 5.644,14.348 12.172,28.25 19.512,41.641 l 19.839,-10.871 c -6.882,-12.563 -13.003,-25.602 -18.3,-39.063 m 638.764,1.961 c -5.37,13.403 -11.56,26.391 -18.52,38.903 l 19.78,10.988 c 7.41,-13.34 14.01,-27.18 19.74,-41.469 l -21,-8.422 M 691.125,818.75 v 0 l -18.324,13.27 c 9.004,12.429 18.769,24.281 29.23,35.46 l 16.524,-15.449 c -9.817,-10.5 -18.981,-21.609 -27.43,-33.281 m 555.625,1.629 c -8.51,11.621 -17.74,22.68 -27.61,33.121 l 16.43,15.539 c 10.52,-11.117 20.36,-22.898 29.43,-35.277 l -18.25,-13.383 m -496.832,61.25 -14.477,17.391 c 11.758,9.789 24.141,18.851 37.079,27.128 l 12.187,-19.058 c -12.137,-7.762 -23.758,-16.27 -34.789,-25.461 m 437.682,1.293 c -11.09,9.117 -22.76,17.57 -34.96,25.258 l 12.08,19.129 c 12.99,-8.2 25.43,-17.188 37.25,-26.918 l -14.37,-17.469 m -365.205,45.058 -9.704,20.442 c 13.778,6.539 28.028,12.25 42.688,17.047 l 7.047,-21.489 c -13.746,-4.511 -27.11,-9.859 -40.031,-16 m 292.405,0.891 c -12.97,6.059 -26.37,11.328 -40.15,15.75 l 6.91,21.539 c 14.7,-4.711 28.99,-10.34 42.82,-16.801 l -9.58,-20.488 M 904.152,954.789 899.875,977 c 14.895,2.871 30.105,4.84 45.578,5.84 l 1.465,-22.57 c -14.523,-0.942 -28.793,-2.79 -42.766,-5.481 m 128.698,0.391 c -13.98,2.601 -28.26,4.359 -42.795,5.218 l 1.332,22.582 c 15.473,-0.91 30.703,-2.781 45.613,-5.558 l -4.15,-22.242" style="fill:#49bc39;fill-opacity:1;fill-rule:nonzero;stroke:none" id="path190"/><path d="m 1073.48,3225.29 c -0.03,1.11 0.34,2.22 1.09,3.11 l 26.57,31.74 c 0.89,1.06 2.21,1.67 3.6,1.67 h 26.78 v -9.37 h -24.6 l -18.72,-22.36 h 162.07 l -19.57,22.36 h -20.93 v 9.37 h 23.06 c 1.36,0 2.64,-0.58 3.53,-1.6 l 27.77,-31.73 c 0.59,-0.67 0.96,-1.48 1.1,-2.33 -0.16,0.96 -0.62,1.87 -1.31,2.56 -0.87,0.87 -2.08,1.37 -3.32,1.37 h -182.44 c -1.23,0 -2.44,-0.5 -3.31,-1.37 -0.87,-0.88 -1.37,-2.08 -1.37,-3.32 v -0.1" style="fill:#49bc39;fill-opacity:1;fill-rule:nonzero;stroke:none" id="path194"/><path d="m 1417.69,3304.31 h -207.92 v 4.69 c 0,1.23 -0.5,2.45 -1.38,3.32 -0.87,0.87 -2.08,1.37 -3.31,1.37 h -68.87 c -1.23,0 -2.44,-0.5 -3.31,-1.37 -0.88,-0.87 -1.38,-2.09 -1.38,-3.32 v -4.69 H 923.633 c -1.235,0 -2.442,0.5 -3.317,1.38 -0.871,0.87 -1.371,2.08 -1.371,3.31 v 320.25 c 0,1.23 0.5,2.44 1.371,3.32 0.875,0.87 2.082,1.37 3.317,1.37 h 494.057 c 1.24,0 2.45,-0.5 3.32,-1.37 0.87,-0.88 1.37,-2.09 1.37,-3.32 V 3309 c 0,-1.23 -0.5,-2.44 -1.37,-3.31 -0.87,-0.88 -2.08,-1.38 -3.32,-1.38 m -489.37,320.25 v -310.87 h 484.69 v 310.87 H 928.32 m -4.687,4.69 v -4.69 4.69 m 457.557,-291.14 h -84.12 v 4.69 h 4.69 -4.69 v -4.69 c -1.23,0 -2.44,0.5 -3.32,1.37 -0.87,0.88 -1.37,2.08 -1.37,3.32 v 117.29 c 0,1.23 0.5,2.44 1.37,3.32 0.88,0.87 2.09,1.37 3.32,1.37 h 84.12 c 1.24,0 2.44,-0.5 3.32,-1.37 0.87,-0.88 1.37,-2.09 1.37,-3.32 V 3342.8 c 0,-1.24 -0.5,-2.44 -1.37,-3.32 -0.88,-0.87 -2.08,-1.37 -3.32,-1.37 m -79.43,9.37 h 74.74 v 107.92 h -74.74 v -107.92 m -22.15,-9.37 h -100.23 c -1.24,0 -2.45,0.5 -3.32,1.37 -0.87,0.88 -1.37,2.08 -1.37,3.32 v 117.29 c 0,1.23 0.5,2.44 1.37,3.32 0.87,0.87 2.08,1.37 3.32,1.37 h 100.23 c 1.23,0 2.44,-0.5 3.31,-1.37 0.88,-0.88 1.38,-2.09 1.38,-3.32 V 3342.8 c 0,-1.24 -0.5,-2.44 -1.38,-3.32 -0.87,-0.87 -2.08,-1.37 -3.31,-1.37 m -95.55,117.29 v -107.92 h 90.86 v 107.92 h -90.86 m -22.15,-117.29 h -100.19 c -1.24,0 -2.44,0.5 -3.32,1.37 -0.87,0.88 -1.37,2.08 -1.37,3.32 v 117.29 c 0,1.23 0.5,2.44 1.37,3.32 0.88,0.87 2.08,1.37 3.32,1.37 h 100.19 v -4.69 4.69 c 1.24,0 2.45,-0.5 3.32,-1.37 0.87,-0.88 1.37,-2.09 1.37,-3.32 V 3342.8 c 0,-1.24 -0.5,-2.44 -1.37,-3.32 -0.87,-0.87 -2.08,-1.37 -3.32,-1.37 m -95.5,117.29 v -107.92 h 90.82 v 107.92 h -90.82 m -22.17,-117.29 h -84.123 c -1.234,0 -2.441,0.5 -3.316,1.37 -0.871,0.88 -1.371,2.08 -1.371,3.32 v 117.29 c 0,1.23 0.5,2.44 1.371,3.32 0.875,0.87 2.082,1.37 3.316,1.37 h 84.123 c 1.23,0 2.44,-0.5 3.31,-1.37 0.88,-0.88 1.38,-2.09 1.38,-3.32 V 3342.8 c 0,-1.24 -0.5,-2.44 -1.38,-3.32 -0.87,-0.87 -2.08,-1.37 -3.31,-1.37 m -79.435,117.29 v -107.92 h 74.745 v 107.92 h -74.745 m 416.385,18.07 h -84.12 c -1.23,0 -2.44,0.5 -3.32,1.38 -0.87,0.87 -1.37,2.08 -1.37,3.31 v 117.31 c 0,1.23 0.5,2.44 1.37,3.31 0.88,0.87 2.09,1.38 3.32,1.38 h 84.12 c 1.24,0 2.44,-0.51 3.32,-1.38 0.87,-0.87 1.37,-2.08 1.37,-3.31 v -117.31 c 0,-1.23 -0.5,-2.44 -1.37,-3.31 -0.88,-0.88 -2.08,-1.38 -3.32,-1.38 m 0,4.69 v 0 4.69 -4.69 m -79.43,112.62 v -107.93 h 74.74 v 107.93 h -74.74 m -22.15,-117.31 h -100.23 v 4.69 h 4.68 -4.68 v -4.69 c -1.24,0 -2.45,0.5 -3.32,1.38 -0.87,0.87 -1.37,2.08 -1.37,3.31 v 117.31 c 0,1.23 0.5,2.44 1.37,3.31 0.87,0.87 2.08,1.38 3.32,1.38 h 100.23 c 1.23,0 2.44,-0.51 3.31,-1.38 0.88,-0.87 1.38,-2.08 1.38,-3.31 v -117.31 c 0,-1.23 -0.5,-2.44 -1.38,-3.31 -0.87,-0.88 -2.08,-1.38 -3.31,-1.38 m -95.55,9.38 h 90.86 v 107.93 h -90.86 v -107.93 m -22.15,-9.38 h -100.19 v 4.69 h 4.69 -4.69 v -4.69 c -1.24,0 -2.44,0.5 -3.32,1.38 -0.87,0.87 -1.37,2.08 -1.37,3.31 v 117.31 c 0,1.23 0.5,2.44 1.37,3.31 0.88,0.87 2.08,1.38 3.32,1.38 h 100.19 c 1.24,0 2.45,-0.51 3.32,-1.38 0.87,-0.87 1.37,-2.08 1.37,-3.31 v -117.31 c 0,-1.23 -0.5,-2.44 -1.37,-3.31 -0.87,-0.88 -2.08,-1.38 -3.32,-1.38 m -95.5,9.38 h 90.82 v 107.93 h -90.82 v -107.93 m -22.17,-9.38 h -84.123 c -1.234,0 -2.441,0.5 -3.316,1.38 -0.871,0.87 -1.371,2.08 -1.371,3.31 v 117.31 c 0,1.23 0.5,2.44 1.371,3.31 0.875,0.87 2.082,1.38 3.316,1.38 h 84.123 v -4.69 4.69 c 1.23,0 2.44,-0.51 3.31,-1.38 0.88,-0.87 1.38,-2.08 1.38,-3.31 v -117.31 c 0,-1.23 -0.5,-2.44 -1.38,-3.31 -0.87,-0.88 -2.08,-1.38 -3.31,-1.38 m -79.435,117.31 v -107.93 h 74.745 v 107.93 h -74.745" style="fill:#49bc39;fill-opacity:1;fill-rule:nonzero;stroke:none" id="path198"/><path d="m 1205.08,3236.74 h -68.87 c -1.23,0 -2.44,0.5 -3.31,1.37 -0.88,0.87 -1.38,2.08 -1.38,3.31 v 11.02 9.37 42.5 4.69 c 0,1.23 0.5,2.45 1.38,3.32 0.87,0.87 2.08,1.37 3.31,1.37 h 68.87 c 1.23,0 2.44,-0.5 3.31,-1.37 0.88,-0.87 1.38,-2.09 1.38,-3.32 v -4.69 -42.5 -9.37 -11.02 c 0,-1.23 -0.5,-2.44 -1.38,-3.31 -0.87,-0.87 -2.08,-1.37 -3.31,-1.37 m 0,4.68 v 0 4.69 -4.69 m -64.18,62.89 v -58.2 h 59.49 v 58.2 h -59.49" style="fill:#49bc39;fill-opacity:1;fill-rule:nonzero;stroke:none" id="path202"/><path d="m 1260.6,3205.78 h -182.44 c -1.23,0 -2.44,0.5 -3.31,1.37 -0.87,0.87 -1.37,2.08 -1.37,3.32 v 14.82 0.1 c 0,1.24 0.5,2.44 1.37,3.32 0.87,0.87 2.08,1.37 3.31,1.37 h 182.44 c 1.24,0 2.45,-0.5 3.32,-1.37 0.69,-0.69 1.15,-1.6 1.31,-2.56 0.04,-0.25 0.06,-0.5 0.06,-0.76 v -14.92 c 0,-1.24 -0.5,-2.45 -1.37,-3.32 -0.87,-0.87 -2.08,-1.37 -3.32,-1.37 m 0,4.69 v 0 4.68 -4.68 m -177.75,10.24 v -5.56 h 173.07 v 5.56 h -173.07" style="fill:#49bc39;fill-opacity:1;fill-rule:nonzero;stroke:none" id="path206"/><path d="m 1170.64,3053.72 c -7.58,0 -15.12,0.23 -22.59,0.68 l 1.37,22.58 c 7.02,-0.42 14.1,-0.64 21.22,-0.64 7.37,0 14.68,0.23 21.92,0.69 v 0 l 1.42,-22.58 c -7.72,-0.49 -15.5,-0.73 -23.34,-0.73 m -68.19,6.34 c -15.2,2.86 -30.07,6.66 -44.55,11.34 l 6.97,21.53 c 13.57,-4.39 27.51,-7.95 41.77,-10.64 l -4.19,-22.23 m 137.12,0.13 -4.23,22.23 c 14.25,2.71 28.18,6.31 41.75,10.72 l 7,-21.51 c -14.46,-4.71 -29.32,-8.54 -44.52,-11.44 m -224.44,28.1 c -13.94,6.55 -27.396,13.95 -40.306,22.14 l 12.117,19.1 c 12.114,-7.68 24.739,-14.62 37.809,-20.76 l -9.62,-20.48 m 311.69,0.3 -9.66,20.46 c 13.04,6.16 25.64,13.12 37.73,20.81 l 12.15,-19.08 c -12.88,-8.2 -26.31,-15.62 -40.22,-22.19 m -389.191,48.83 c -11.824,9.77 -23.027,20.27 -33.535,31.42 l 16.469,15.51 c 9.863,-10.47 20.375,-20.32 31.472,-29.48 l -14.406,-17.45 m 466.541,0.41 -14.44,17.41 c 11.08,9.19 21.58,19.06 31.42,29.54 l 16.5,-15.48 c -10.49,-11.18 -21.67,-21.69 -33.48,-31.47 m -529.432,66.35 c -9.011,12.35 -17.269,25.28 -24.711,38.73 l 19.801,10.95 c 6.977,-12.62 14.727,-24.75 23.184,-36.34 l -18.274,-13.34 m 592.212,0.52 -18.3,13.31 c 8.45,11.61 16.18,23.76 23.14,36.4 l 19.82,-10.91 c -7.42,-13.48 -15.66,-26.43 -24.66,-38.8 m -636.575,79.72 c -5.637,14.15 -10.418,28.74 -14.277,43.7 l 21.906,5.65 c 3.617,-14.03 8.101,-27.7 13.391,-40.97 l -21.02,-8.38 m 680.825,0.68 -21.03,8.33 c 5.26,13.29 9.72,26.98 13.31,41.03 l 21.92,-5.61 c -3.83,-14.97 -8.58,-29.58 -14.2,-43.75 m -703.751,88.15 c -1.91,15.03 -2.906,30.33 -2.941,45.85 l 22.625,0.04 c 0.027,-14.58 0.969,-28.94 2.758,-43.03 l -22.442,-2.86 m 726.511,0.76 -22.45,2.8 c 1.76,14.1 2.67,28.46 2.67,43.05 l -0.01,1.42 22.63,0.1 v -1.52 c 0,-15.52 -0.97,-30.83 -2.84,-45.85 m -704.245,88.19 -22.457,2.76 c 1.89,15.36 4.73,30.44 8.465,45.17 l 21.929,-5.56 c -3.5,-13.81 -6.168,-27.95 -7.937,-42.37 m 681.615,2.11 c -1.86,14.41 -4.62,28.54 -8.2,42.32 l 21.89,5.7 c 3.83,-14.7 6.76,-29.76 8.74,-45.12 l -22.43,-2.9 m -660.451,81.32 -21.051,8.28 c 5.649,14.34 12.172,28.25 19.512,41.64 l 19.84,-10.87 c -6.883,-12.57 -13.004,-25.6 -18.301,-39.05 m 638.771,1.95 c -5.37,13.4 -11.56,26.39 -18.51,38.9 l 19.77,10.99 c 7.41,-13.33 14.02,-27.18 19.74,-41.47 l -21,-8.42 m -597.412,73.55 -18.32,13.27 c 9.004,12.43 18.77,24.28 29.227,35.46 l 16.527,-15.45 c -9.817,-10.5 -18.984,-21.61 -27.434,-33.28 m 555.642,1.64 c -8.52,11.61 -17.74,22.67 -27.62,33.11 l 16.44,15.55 c 10.52,-11.13 20.35,-22.91 29.42,-35.29 l -18.24,-13.37 m -496.849,61.25 -14.472,17.38 c 11.757,9.79 24.136,18.85 37.074,27.13 l 12.191,-19.06 c -12.14,-7.76 -23.758,-16.27 -34.793,-25.45 m 437.699,1.28 c -11.1,9.13 -22.77,17.57 -34.96,25.26 l 12.07,19.14 c 13,-8.21 25.44,-17.2 37.26,-26.93 l -14.37,-17.47 m -365.22,45.06 -9.7,20.44 c 13.78,6.54 28.03,12.25 42.69,17.06 l 7.04,-21.5 c -13.74,-4.51 -27.11,-9.86 -40.03,-16 m 292.41,0.89 c -12.96,6.05 -26.37,11.33 -40.15,15.75 l 6.91,21.54 c 14.7,-4.72 29,-10.34 42.82,-16.79 l -9.58,-20.5 m -210.65,25.92 -4.28,22.21 c 14.9,2.87 30.11,4.84 45.58,5.84 l 1.47,-22.57 c -14.53,-0.95 -28.8,-2.79 -42.77,-5.48 m 128.7,0.38 c -13.98,2.61 -28.26,4.37 -42.8,5.22 l 1.34,22.59 c 15.47,-0.91 30.7,-2.79 45.61,-5.56 l -4.15,-22.25" style="fill:#49bc39;fill-opacity:1;fill-rule:nonzero;stroke:none" id="path208"/><path d="m 3204.57,3278.84 c -0.04,0 -0.09,0 -0.14,0 h -51.3 -2.93 -25.51 c 0.21,0 0.41,0.02 0.62,0.05 2.56,0.36 4.34,2.74 3.98,5.3 v 0 c -0.19,1.34 -0.38,2.68 -0.57,4.02 h 21.48 2.93 24.9 c -0.02,-0.17 -0.03,-0.33 -0.05,-0.51 -0.21,-2.58 1.72,-4.84 4.3,-5.05 0.13,-0.01 0.25,-0.02 0.38,-0.02 2.42,0 4.47,1.86 4.67,4.31 0.03,0.43 0.07,0.85 0.1,1.27 h 17 c 5.44,0.04 9.01,1.65 11.91,4.11 2.88,2.47 5.01,6.01 6.49,9.83 2.97,7.63 3.13,16.08 3.11,16.81 v 0.08 0.02 l 0.06,0.78 c 6.27,37.41 19.72,61.47 29.88,75 l 0.46,0.53 c 4.11,4.03 8,8.26 11.61,12.71 l 0.09,0.08 c 22.21,27.27 35.63,62.5 35.63,101.05 0,43.28 -16.89,82.41 -44.16,110.72 -27.27,28.32 -64.85,45.78 -106.38,45.78 -41.52,0 -79.1,-17.46 -106.37,-45.78 -27.27,-28.31 -44.16,-67.44 -44.16,-110.72 0,-38.57 13.45,-73.82 35.68,-101.09 0.12,-0.14 0.23,-0.3 0.33,-0.45 4.04,-4.87 32.75,-40.37 38.76,-88.03 l 0.03,-0.68 v -0.1 c 0,-0.86 0.08,-5.79 1.41,-11.37 1.3,-5.62 3.91,-11.69 8.21,-15.27 2.88,-2.4 6.45,-3.97 11.87,-4.01 h 20.37 c 0.24,-1.78 0.49,-3.56 0.75,-5.34 0.33,-2.32 2.3,-4 4.58,-4.03 h -25.7 c -0.05,0 -0.09,0 -0.14,0 -7.33,0 -13.38,2.47 -17.78,6.22 -4.44,3.76 -7.27,8.61 -9.13,13.33 -3.65,9.31 -3.79,18.43 -3.81,20.38 -5.6,44.6 -33.39,79.11 -36.66,82.95 l -0.31,0.36 c -0.16,0.19 -0.31,0.4 -0.45,0.61 -23.32,28.83 -37.39,65.99 -37.39,106.52 0,45.74 17.87,87.21 46.78,117.23 28.9,30.02 68.93,48.65 113.11,48.65 0,0 0.01,0 0.02,0 44.19,0 84.23,-18.63 113.14,-48.65 28.91,-30.02 46.78,-71.49 46.78,-117.23 0,-40.76 -14.22,-78.12 -37.78,-107.01 v 0 0 l -0.08,-0.09 c -3.77,-4.63 -7.8,-9.02 -12.02,-13.18 -9.29,-12.47 -21.85,-34.86 -27.86,-70.28 -0.02,-1.54 -0.17,-6.69 -1.61,-12.88 -1.57,-6.67 -4.57,-14.74 -11.23,-20.55 -4.4,-3.83 -10.5,-6.38 -17.9,-6.38" style="fill:#49bc39;fill-opacity:1;fill-rule:nonzero;stroke:none" id="path212"/><path d="m 3209.77,3257.9 -122.05,8.3 c -2.86,0 -5.18,2.51 -5.18,5.62 0,3.11 2.32,5.63 5.18,5.63 l 122.05,-8.3 c 2.87,0 5.2,-2.52 5.2,-5.63 0,-3.1 -2.33,-5.62 -5.2,-5.62" style="fill:#49bc39;fill-opacity:1;fill-rule:nonzero;stroke:none" id="path214"/><path d="m 3209.77,3239.83 -122.05,8.29 c -2.86,0 -5.18,2.52 -5.18,5.62 0,3.11 2.32,5.64 5.18,5.64 l 122.05,-8.3 c 2.87,0 5.2,-2.52 5.2,-5.63 0,-3.1 -2.33,-5.62 -5.2,-5.62" style="fill:#49bc39;fill-opacity:1;fill-rule:nonzero;stroke:none" id="path216"/><path d="m 3209.77,3221.76 -122.05,8.29 c -2.86,0 -5.18,2.52 -5.18,5.63 0,3.1 2.32,5.62 5.18,5.62 l 122.05,-8.29 c 2.87,0 5.2,-2.52 5.2,-5.63 0,-3.1 -2.33,-5.62 -5.2,-5.62" style="fill:#49bc39;fill-opacity:1;fill-rule:nonzero;stroke:none" id="path218"/><path d="m 3180.4,3164.63 h -64.64 c -1.64,0 -3.16,0.86 -4.01,2.27 l -28.84,47.75 4.01,2.43 -4.01,-2.43 c -0.9,1.5 -0.9,3.4 0.02,4.89 0.86,1.38 2.38,2.23 4,2.23 0.11,0 0.23,-0.01 0.35,-0.02 l 123.66,-9.42 c 1.73,-0.13 3.24,-1.2 3.94,-2.79 0.7,-1.58 0.46,-3.42 -0.61,-4.78 l -30.19,-38.34 c -0.89,-1.13 -2.24,-1.79 -3.68,-1.79 m -84.76,47.08 22.77,-37.7 h 59.71 l 23.34,29.64 -105.82,8.06" style="fill:#49bc39;fill-opacity:1;fill-rule:nonzero;stroke:none" id="path222"/><path d="m 3124.64,3278.84 c -0.02,0 -0.03,0 -0.05,0 -2.28,0.03 -4.25,1.71 -4.58,4.03 -0.26,1.78 -0.51,3.56 -0.75,5.34 -7,50.43 -11.89,101.22 -20.89,150.97 -10.46,2.75 -20.37,8.32 -27.18,16.39 v 0 c -3.3,3.96 -4.86,8.77 -4.85,13.44 0.01,5.98 2.45,11.81 6.84,16.08 h 0.01 c 1.52,1.46 3.52,3.15 5.91,4.58 2.39,1.4 5.17,2.66 8.54,2.69 0.04,0 0.07,0 0.11,0 2.25,0 4.79,-0.78 6.77,-2.47 l 0.01,-0.01 c 2.36,-2.03 3.73,-4.59 4.81,-7.28 1.06,-2.69 1.78,-5.59 2.35,-8.49 1.13,-5.75 1.69,-11.63 2.34,-14.73 v 0 c 0.83,-4.1 1.64,-8.21 2.41,-12.32 2.15,-0.32 4.29,-0.48 6.36,-0.48 0.08,0 0.16,0 0.24,0 1.03,0 2.05,0.04 3.05,0.11 7.89,0.55 16.32,3.76 23.72,8.54 -1.79,1.77 -3.37,3.79 -4.65,6.11 -1.97,3.62 -3.2,7.93 -3.22,12.41 -0.01,4.47 1.34,9.35 5.05,13.01 h 0.01 c 2.33,2.18 5.03,3.15 8.13,4.03 3.08,0.82 6.49,1.3 9.82,1.3 2.18,0 4.32,-0.2 6.37,-0.75 2.04,-0.56 4.12,-1.45 5.83,-3.38 l 0.01,-0.01 c 1.87,-2.14 2.58,-4.86 2.55,-7.18 -0.02,-3.04 -0.95,-5.68 -1.97,-8 -1.04,-2.31 -2.25,-4.31 -3.12,-5.73 v -0.01 c -2.41,-3.86 -5.35,-7.51 -8.7,-10.84 1,-0.38 2.03,-0.73 3.1,-1.05 7.13,-2.14 15.37,-2.87 21.94,-3.07 l 1.65,-0.02 h 0.01 c 3.27,0 6.58,0.29 9.86,0.85 0.97,5.33 2.06,9.77 3.34,13.51 v 0 c 2.26,6.52 5.32,11.33 8.93,14.6 3.59,3.26 7.81,4.91 11.84,4.91 0.01,0 0.02,0 0.04,0 h 0.01 c 3.94,0 7.6,-1.54 10.25,-4.15 2.66,-2.61 4.3,-6.31 4.29,-10.36 0,-4.24 -1.79,-8.69 -5.31,-12.63 -3.54,-3.97 -8.77,-7.54 -16.05,-10.55 l 0.02,0.01 c -2.96,-1.23 -6.02,-2.28 -9.14,-3.11 -1.37,-9.18 -2.61,-21.04 -3.88,-36.07 -2.39,-27.91 -5.01,-66.88 -9.39,-120.85 -0.03,-0.42 -0.07,-0.84 -0.1,-1.27 -0.2,-2.45 -2.25,-4.31 -4.67,-4.31 -0.13,0 -0.25,0.01 -0.38,0.02 -2.58,0.21 -4.51,2.47 -4.3,5.05 0.02,0.18 0.03,0.34 0.05,0.51 4.4,54.31 7.04,93.46 9.45,121.65 1.16,13.45 2.25,24.38 3.47,33.34 -2.77,-0.35 -5.56,-0.53 -8.34,-0.53 l -1.94,0.03 c -7.01,0.23 -15.92,0.94 -24.34,3.46 -2.84,0.86 -5.66,1.93 -8.34,3.29 -9.22,-6.7 -20.21,-11.19 -31.19,-12.11 -1.24,-0.09 -2.5,-0.14 -3.76,-0.14 -1.6,0.01 -3.22,0.09 -4.84,0.24 8.78,-49.58 13.62,-99.78 20.52,-149.23 0.19,-1.34 0.38,-2.68 0.57,-4.02 v 0 c 0.36,-2.56 -1.42,-4.94 -3.98,-5.3 -0.21,-0.03 -0.41,-0.05 -0.62,-0.05 -0.01,0 -0.03,0 -0.05,0 m -44.93,199.52 c -2.56,-2.47 -4,-5.96 -3.99,-9.35 0.01,-2.66 0.83,-5.21 2.68,-7.44 v 0 c 4.24,-5.19 10.82,-9.35 18.01,-11.96 -0.51,2.64 -1.03,5.27 -1.57,7.9 v 0 c -0.61,3.03 -1.03,6.88 -1.66,10.86 -0.61,3.95 -1.44,7.97 -2.56,10.79 -0.73,1.89 -1.61,3.14 -2.14,3.55 h 0.01 l -0.85,0.28 c -0.03,0 -0.05,0 -0.08,0 -0.7,0 -2.16,-0.46 -3.65,-1.37 -1.55,-0.92 -3.12,-2.21 -4.21,-3.27 l 0.01,0.01 m 136.92,-1.81 c -1.54,-0.01 -3.44,-0.57 -5.6,-2.5 -2.14,-1.93 -4.48,-5.3 -6.35,-10.71 v 0 c -0.76,-2.16 -1.46,-4.77 -2.13,-7.84 1.24,0.43 2.47,0.89 3.69,1.4 l 0.01,0.01 c 6.32,2.59 10.32,5.51 12.61,8.1 2.3,2.6 2.93,4.78 2.94,6.4 -0.04,3.03 -2.19,5.07 -5.17,5.14 m -73.06,3.52 c -1.48,-1.45 -2.24,-3.59 -2.25,-6.32 -0.01,-2.66 0.83,-5.69 2.06,-7.91 0.97,-1.81 2.33,-3.41 4,-4.83 3.71,3.32 6.89,7.04 9.25,10.93 l -0.01,-0.01 c 0.83,1.34 1.82,3.02 2.56,4.68 0.76,1.64 1.18,3.27 1.16,4.16 l -0.29,1.05 -0.15,0.09 -1.02,0.38 c -0.93,0.26 -2.33,0.42 -3.87,0.42 -0.02,0 -0.04,0 -0.06,0 -0.02,0 -0.03,0 -0.05,0 -2.39,0 -5.13,-0.37 -7.35,-0.98 -2.23,-0.53 -4,-1.56 -3.98,-1.66 v 0" style="fill:#49bc39;fill-opacity:1;fill-rule:nonzero;stroke:none" id="path224"/><path d="m 3153.14,3053.71 c -7.59,0 -15.13,0.23 -22.61,0.69 l 1.38,22.58 c 7.02,-0.43 14.1,-0.65 21.23,-0.65 7.36,0 14.67,0.24 21.91,0.69 l 1.42,-22.58 c -7.72,-0.48 -15.49,-0.73 -23.33,-0.73 m -68.21,6.34 c -15.2,2.87 -30.06,6.67 -44.54,11.35 l 6.96,21.53 c 13.58,-4.39 27.52,-7.96 41.77,-10.64 l -4.19,-22.24 m 137.13,0.14 -4.24,22.22 c 14.25,2.72 28.19,6.31 41.75,10.73 l 7.01,-21.51 c -14.47,-4.71 -29.33,-8.55 -44.52,-11.44 m -224.45,28.1 c -13.93,6.55 -27.39,13.95 -40.3,22.14 l 12.12,19.11 c 12.11,-7.68 24.73,-14.63 37.81,-20.77 l -9.63,-20.48 m 311.69,0.3 -9.66,20.46 c 13.05,6.16 25.64,13.12 37.73,20.81 l 12.15,-19.08 c -12.88,-8.2 -26.31,-15.62 -40.22,-22.19 m -389.18,48.84 c -11.83,9.76 -23.03,20.26 -33.54,31.41 l 16.47,15.52 c 9.86,-10.47 20.38,-20.32 31.47,-29.49 l -14.4,-17.44 m 466.53,0.4 -14.44,17.42 c 11.08,9.18 21.58,19.05 31.42,29.54 v 0 l 16.5,-15.49 c -10.49,-11.17 -21.67,-21.68 -33.48,-31.47 m -529.42,66.35 c -9.02,12.35 -17.28,25.28 -24.72,38.73 l 19.8,10.95 c 6.98,-12.62 14.73,-24.75 23.19,-36.34 l -18.27,-13.34 m 592.2,0.53 -18.3,13.3 c 8.45,11.61 16.18,23.77 23.14,36.41 l 19.82,-10.92 c -7.42,-13.47 -15.66,-26.42 -24.66,-38.79 m -636.57,79.71 c -5.64,14.15 -10.42,28.74 -14.28,43.69 l 21.91,5.66 c 3.62,-14.03 8.1,-27.7 13.39,-40.97 l -21.02,-8.38 m 680.82,0.69 -21.03,8.32 c 5.26,13.29 9.72,26.99 13.31,41.03 v 0 l 21.92,-5.6 c -3.83,-14.98 -8.59,-29.59 -14.2,-43.75 m -703.75,88.14 c -1.91,15.02 -2.91,30.32 -2.94,45.85 l 22.62,0.04 c 0.03,-14.58 0.97,-28.94 2.76,-43.03 v 0 l -22.44,-2.86 m 726.51,0.76 -22.45,2.81 c 1.76,14.09 2.67,28.46 2.67,43.04 l -0.01,1.43 22.63,0.09 v -1.52 c 0,-15.52 -0.97,-30.82 -2.84,-45.85 m -704.25,88.19 -22.45,2.75 c 1.89,15.37 4.73,30.45 8.46,45.18 l 21.93,-5.56 c -3.5,-13.81 -6.16,-27.96 -7.94,-42.37 m 681.62,2.12 c -1.86,14.4 -4.62,28.53 -8.21,42.32 l 21.9,5.7 c 3.83,-14.71 6.76,-29.77 8.75,-45.13 l -22.44,-2.89 m -660.45,81.3 -21.05,8.29 c 5.65,14.34 12.17,28.25 19.51,41.64 l 19.84,-10.87 c -6.88,-12.57 -13,-25.61 -18.3,-39.06 m 638.77,1.96 c -5.37,13.4 -11.56,26.39 -18.51,38.9 v 0 l 19.77,10.99 c 7.41,-13.33 14.01,-27.18 19.74,-41.47 l -21,-8.42 m -597.41,73.55 -18.32,13.26 c 9,12.44 18.77,24.28 29.23,35.47 l 16.52,-15.45 c -9.81,-10.5 -18.98,-21.62 -27.43,-33.28 m 555.64,1.64 c -8.52,11.61 -17.75,22.67 -27.62,33.11 l 16.43,15.55 c 10.53,-11.13 20.36,-22.91 29.43,-35.29 l -18.24,-13.37 m -496.85,61.24 -14.47,17.39 c 11.76,9.79 24.14,18.85 37.08,27.13 l 12.19,-19.07 c -12.14,-7.76 -23.76,-16.26 -34.8,-25.45 m 437.69,1.29 c -11.09,9.13 -22.76,17.57 -34.96,25.27 l 12.08,19.13 c 13,-8.2 25.44,-17.2 37.26,-26.92 l -14.38,-17.48 m -365.21,45.06 -9.7,20.44 c 13.78,6.54 28.03,12.25 42.69,17.05 l 7.05,-21.49 c -13.75,-4.51 -27.11,-9.86 -40.04,-16 m 292.41,0.89 c -12.97,6.06 -26.37,11.33 -40.15,15.76 l 6.91,21.54 c 14.7,-4.72 28.99,-10.34 42.82,-16.8 l -9.58,-20.5 m -210.65,25.92 -4.28,22.21 c 14.9,2.87 30.11,4.84 45.58,5.85 l 1.47,-22.58 c -14.52,-0.94 -28.8,-2.79 -42.77,-5.48 m 128.7,0.39 c -13.98,2.61 -28.26,4.37 -42.8,5.22 l 1.33,22.59 c 15.48,-0.91 30.71,-2.79 45.62,-5.57 l -4.15,-22.24" style="fill:#49bc39;fill-opacity:1;fill-rule:nonzero;stroke:none" id="path226"/><path d="m 631.973,2461.01 c -69.934,0 -126.637,56.69 -126.641,126.65 0.004,69.94 56.707,126.64 126.641,126.64 69.953,0 126.656,-56.7 126.66,-126.64 v 0 0 0 c -0.004,-69.96 -56.707,-126.65 -126.66,-126.65 m 0,243.92 c -32.391,0 -61.68,-13.12 -82.914,-34.35 -21.231,-21.24 -34.348,-50.52 -34.352,-82.92 0.004,-32.4 13.121,-61.69 34.352,-82.93 21.234,-21.23 50.523,-34.34 82.914,-34.35 32.402,0.01 61.695,13.12 82.933,34.35 21.231,21.24 34.348,50.53 34.352,82.93 -0.004,32.4 -13.121,61.68 -34.352,82.92 -21.238,21.23 -50.531,34.35 -82.933,34.35 m 126.66,-117.27 v 0 0" style="fill:#49bc39;fill-opacity:1;fill-rule:nonzero;stroke:none" id="path230"/><path d="m 631.973,2486.8 c -55.696,0 -100.856,45.15 -100.86,100.86 0.004,55.69 45.164,100.84 100.86,100.85 55.707,0 100.855,-45.16 100.859,-100.85 v 0 0 0 C 732.828,2531.95 687.68,2486.8 631.973,2486.8 m 0,192.33 c -25.274,0 -48.114,-10.23 -64.688,-26.79 -16.562,-16.57 -26.793,-39.41 -26.797,-64.68 0.004,-25.28 10.235,-48.12 26.797,-64.69 16.574,-16.56 39.414,-26.79 64.688,-26.8 25.277,0.01 48.121,10.24 64.687,26.8 16.563,16.57 26.793,39.41 26.797,64.69 -0.004,25.27 -10.234,48.11 -26.797,64.68 -16.566,16.56 -39.41,26.79 -64.687,26.79 m 100.859,-91.47 v 0 0" style="fill:#49bc39;fill-opacity:1;fill-rule:nonzero;stroke:none" id="path234"/><path d="m 660.957,2727.45 h -47.844 c -1.371,0 -2.675,0.61 -3.566,1.65 -0.891,1.05 -1.277,2.43 -1.059,3.79 l 23.914,148.09 c 0.368,2.28 2.325,3.94 4.629,3.94 2.305,0 4.258,-1.66 4.629,-3.94 l 23.926,-148.09 c 0.219,-1.36 -0.168,-2.74 -1.059,-3.79 -0.89,-1.04 -2.199,-1.65 -3.57,-1.65 m -42.336,9.38 h 36.828 l -18.418,114 -18.41,-114" style="fill:#49bc39;fill-opacity:1;fill-rule:nonzero;stroke:none" id="path238"/><path d="m 637.031,2285.13 c -2.304,0 -4.261,1.66 -4.629,3.94 l -23.914,148.1 c -0.218,1.35 0.168,2.74 1.059,3.78 0.891,1.05 2.195,1.65 3.566,1.65 h 47.844 v -4.69 4.69 c 1.371,0 2.68,-0.6 3.57,-1.65 0.891,-1.04 1.278,-2.43 1.059,-3.78 l -23.926,-148.1 c -0.367,-2.28 -2.324,-3.94 -4.629,-3.94 m -18.41,148.09 18.41,-114 18.418,114 h -36.828 m 42.336,4.69 v 0" style="fill:#49bc39;fill-opacity:1;fill-rule:nonzero;stroke:none" id="path242"/><path d="m 784.141,2556.41 c -1.106,0 -2.184,0.39 -3.039,1.12 -1.047,0.89 -1.649,2.19 -1.649,3.57 v 47.84 c 0,1.38 0.602,2.68 1.649,3.57 0.851,0.73 1.933,1.12 3.039,1.12 0.25,0 0.5,-0.02 0.746,-0.06 l 148.097,-23.92 c 2.278,-0.36 3.942,-2.32 3.942,-4.62 0,-2.31 -1.664,-4.26 -3.942,-4.63 l -148.093,-23.93 c -0.25,-0.04 -0.5,-0.06 -0.75,-0.06 m 4.687,47.03 v -36.84 l 114.012,18.43 -114.012,18.41 m -4.687,5.5 -0.746,-4.62 0.746,4.62" style="fill:#49bc39;fill-opacity:1;fill-rule:nonzero;stroke:none" id="path246"/><path d="m 489.922,2556.41 c -0.25,0 -0.5,0.02 -0.746,0.06 L 341.09,2580.4 c -2.277,0.37 -3.942,2.32 -3.942,4.63 0,2.3 1.665,4.26 3.942,4.62 l 148.086,23.92 c 0.246,0.04 0.496,0.06 0.746,0.06 1.105,0 2.183,-0.39 3.039,-1.12 1.047,-0.89 1.648,-2.19 1.648,-3.57 v -47.84 0 c 0,-1.38 -0.601,-2.68 -1.648,-3.57 -0.856,-0.73 -1.934,-1.12 -3.039,-1.12 m 0,4.69 v 0 l 0.746,4.62 -0.746,-4.62 m -4.688,42.34 -114.004,-18.41 114.004,-18.43 v 36.84" style="fill:#49bc39;fill-opacity:1;fill-rule:nonzero;stroke:none" id="path250"/><path d="m 733.066,2694.32 c -0.839,0 -1.671,0.22 -2.406,0.66 l -41.074,24.56 c -1.18,0.7 -1.988,1.89 -2.219,3.25 -0.226,1.35 0.153,2.74 1.039,3.79 l 96.563,114.82 c 0.918,1.09 2.242,1.67 3.586,1.67 0.824,0 1.656,-0.22 2.406,-0.67 1.98,-1.18 2.801,-3.61 1.949,-5.75 l -55.488,-139.38 c -0.508,-1.27 -1.551,-2.26 -2.852,-2.7 -0.492,-0.17 -1,-0.25 -1.504,-0.25 m -33.941,30.44 31.621,-18.9 42.719,107.3 -74.34,-88.4" style="fill:#49bc39;fill-opacity:1;fill-rule:nonzero;stroke:none" id="path254"/><path d="m 485.52,2326.97 c -0.825,0 -1.657,0.21 -2.407,0.66 -1.98,1.19 -2.804,3.62 -1.953,5.76 l 55.481,139.39 c 0.507,1.27 1.55,2.26 2.851,2.7 0.492,0.17 0.996,0.25 1.504,0.25 0.84,0 1.672,-0.22 2.406,-0.66 l 41.075,-24.57 -2.407,-4.02 2.407,4.02 c 1.179,-0.7 1.988,-1.89 2.214,-3.25 0.231,-1.35 -0.148,-2.74 -1.035,-3.79 l -96.551,-114.82 c -0.921,-1.09 -2.242,-1.67 -3.585,-1.67 m 57.796,137.22 -42.714,-107.31 74.336,88.4 -31.622,18.91" style="fill:#49bc39;fill-opacity:1;fill-rule:nonzero;stroke:none" id="path258"/><path d="m 774.648,2637.6 c -0.234,0 -0.468,0.02 -0.699,0.05 -1.359,0.21 -2.558,1 -3.285,2.17 l -25.234,40.65 c -0.723,1.16 -0.899,2.59 -0.481,3.9 0.418,1.31 1.391,2.36 2.66,2.89 l 138.446,57.79 c 0.59,0.24 1.203,0.36 1.808,0.36 1.582,0 3.102,-0.8 3.981,-2.22 1.215,-1.96 0.832,-4.49 -0.906,-6.01 l -113.215,-98.43 c -0.86,-0.75 -1.953,-1.15 -3.075,-1.15 m -18.347,43.13 19.426,-31.29 87.156,75.78 -106.582,-44.49" style="fill:#49bc39;fill-opacity:1;fill-rule:nonzero;stroke:none" id="path262"/><path d="m 386.227,2424.63 c -1.579,0 -3.098,0.81 -3.981,2.22 -1.215,1.96 -0.832,4.5 0.91,6.01 l 113.203,98.44 c 0.856,0.75 1.954,1.15 3.075,1.15 0.234,0 0.468,-0.02 0.699,-0.05 1.359,-0.21 2.558,-1 3.285,-2.17 l 25.215,-40.66 -3.985,-2.47 3.985,2.47 c 0.722,-1.16 0.898,-2.59 0.48,-3.9 -0.422,-1.31 -1.39,-2.36 -2.66,-2.89 L 388.035,2425 c -0.59,-0.25 -1.203,-0.37 -1.808,-0.37 m 112.125,95.98 -87.145,-75.78 106.559,44.48 -19.414,31.3" style="fill:#49bc39;fill-opacity:1;fill-rule:nonzero;stroke:none" id="path266"/><path d="m 892.914,2433.13 c -0.555,0 -1.117,0.1 -1.664,0.31 l -140.293,53.11 c -1.285,0.48 -2.293,1.51 -2.754,2.8 -0.465,1.3 -0.336,2.73 0.352,3.92 l 23.867,41.47 c 0.683,1.19 1.859,2.02 3.207,2.27 0.285,0.06 0.57,0.08 0.855,0.08 1.067,0 2.114,-0.36 2.957,-1.05 l 116.426,-94.58 c 1.789,-1.45 2.258,-3.97 1.106,-5.97 -0.86,-1.5 -2.422,-2.36 -4.059,-2.36 m -115.113,92.17 -18.375,-31.93 108.008,-40.89 -89.633,72.82 m -1.317,7.1 -2.957,-3.63 2.957,3.63" style="fill:#49bc39;fill-opacity:1;fill-rule:nonzero;stroke:none" id="path270"/><path d="m 497.578,2632.96 c -1.066,0 -2.113,0.36 -2.957,1.05 l -116.445,94.57 c -1.789,1.45 -2.254,3.98 -1.106,5.98 0.86,1.49 2.422,2.35 4.059,2.35 0.555,0 1.117,-0.1 1.664,-0.31 l 140.312,-53.1 c 1.286,-0.48 2.293,-1.51 2.754,-2.8 0.461,-1.3 0.336,-2.73 -0.351,-3.92 l -23.867,-41.47 v 0 c -0.684,-1.19 -1.86,-2.03 -3.207,-2.28 -0.286,-0.05 -0.571,-0.07 -0.856,-0.07 m 0,4.68 v 0 l 2.953,3.64 -2.953,-3.64 m -90.965,79.92 89.649,-72.81 18.375,31.93 -108.024,40.88" style="fill:#49bc39;fill-opacity:1;fill-rule:nonzero;stroke:none" id="path274"/><path d="m 782.598,2323.51 c -1.383,0 -2.739,0.61 -3.657,1.76 l -93.82,117.04 c -0.859,1.07 -1.203,2.47 -0.945,3.82 0.258,1.35 1.097,2.51 2.293,3.19 l 41.621,23.59 c 0.711,0.41 1.508,0.61 2.312,0.61 0.539,0 1.086,-0.09 1.606,-0.28 1.289,-0.47 2.308,-1.48 2.789,-2.77 l 52.195,-140.64 c 0.805,-2.16 -0.078,-4.57 -2.082,-5.71 -0.73,-0.41 -1.527,-0.61 -2.312,-0.61 m -54.676,138.53 -32.043,-18.16 72.226,-90.1 -40.183,108.26 m 2.476,6.8 -4.394,-1.64 4.394,1.64" style="fill:#49bc39;fill-opacity:1;fill-rule:nonzero;stroke:none" id="path278"/><path d="m 543.672,2696.52 c -0.543,0 -1.086,0.09 -1.606,0.28 -1.293,0.48 -2.312,1.49 -2.789,2.78 l -52.207,140.63 c -0.804,2.16 0.078,4.57 2.082,5.71 0.731,0.41 1.528,0.61 2.317,0.61 1.379,0 2.734,-0.61 3.652,-1.75 l 93.828,-117.05 c 0.86,-1.07 1.207,-2.46 0.946,-3.81 -0.258,-1.35 -1.094,-2.52 -2.29,-3.2 l -41.621,-23.59 v 0 c -0.714,-0.4 -1.511,-0.61 -2.312,-0.61 m 0,4.69 v 0 l 4.394,1.63 -4.394,-1.63 m -37.711,115.06 40.191,-108.27 32.039,18.17 -72.23,90.1" style="fill:#49bc39;fill-opacity:1;fill-rule:nonzero;stroke:none" id="path282"/><path d="m 637.051,2218.88 c -7.598,0 -15.141,0.23 -22.625,0.69 l 1.379,22.58 c 7.023,-0.43 14.109,-0.64 21.246,-0.64 7.355,0 14.652,0.23 21.89,0.68 l 1.422,-22.58 c -7.711,-0.48 -15.484,-0.73 -23.312,-0.73 m -68.227,6.35 c -15.195,2.86 -30.066,6.67 -44.543,11.35 l 6.961,21.52 c 13.574,-4.39 27.52,-7.95 41.774,-10.64 l -4.192,-22.23 m 137.129,0.13 -4.234,22.22 c 14.25,2.72 28.187,6.31 41.75,10.73 l 7.004,-21.52 c -14.465,-4.71 -29.328,-8.54 -44.52,-11.43 m -224.449,28.11 c -13.938,6.54 -27.391,13.94 -40.301,22.13 l 12.117,19.1 c 12.11,-7.68 24.735,-14.62 37.805,-20.76 l -9.621,-20.47 m 311.691,0.28 -9.66,20.46 c 13.051,6.16 25.649,13.12 37.735,20.82 l 12.148,-19.09 c -12.883,-8.2 -26.309,-15.62 -40.223,-22.19 m -389.191,48.84 c -11.824,9.77 -23.024,20.27 -33.535,31.42 l 16.469,15.51 c 9.863,-10.47 20.375,-20.32 31.472,-29.48 l -14.406,-17.45 m 466.547,0.4 -14.438,17.42 c 11.082,9.19 21.578,19.05 31.422,29.54 l 16.492,-15.49 c -10.488,-11.17 -21.668,-21.68 -33.476,-31.47 m -529.438,66.36 c -9.011,12.35 -17.273,25.28 -24.715,38.73 l 19.801,10.95 c 6.977,-12.62 14.727,-24.75 23.188,-36.34 l -18.274,-13.34 m 592.219,0.52 -18.297,13.3 c 8.445,11.61 16.176,23.77 23.137,36.41 l 19.816,-10.92 c -7.418,-13.47 -15.66,-26.43 -24.656,-38.79 m -636.59,79.72 c -5.637,14.15 -10.418,28.74 -14.273,43.69 l 21.902,5.66 c 3.621,-14.03 8.106,-27.71 13.391,-40.98 l -21.02,-8.37 m 680.848,0.67 -21.035,8.33 c 5.261,13.29 9.718,26.99 13.312,41.03 l 21.918,-5.6 c -3.832,-14.98 -8.586,-29.59 -14.195,-43.76 m -703.777,88.16 c -1.907,15.02 -2.907,30.33 -2.938,45.85 l 22.625,0.04 c 0.031,-14.58 0.969,-28.94 2.758,-43.04 l -22.445,-2.85 m 726.527,0.75 -22.445,2.81 c 1.761,14.09 2.668,28.46 2.668,43.04 l -0.004,1.43 22.621,0.09 0.01,-1.52 c 0,-15.52 -0.97,-30.82 -2.85,-45.85 m -704.258,88.19 -22.453,2.76 c 1.887,15.37 4.73,30.45 8.465,45.18 l 21.929,-5.56 c -3.503,-13.81 -6.168,-27.95 -7.941,-42.38 m 681.633,2.12 c -1.863,14.41 -4.613,28.53 -8.203,42.32 l 21.894,5.7 c 3.828,-14.71 6.762,-29.77 8.744,-45.13 l -22.435,-2.89 m -660.465,81.31 -21.051,8.29 c 5.649,14.34 12.172,28.25 19.516,41.64 l 19.84,-10.87 c -6.887,-12.57 -13.008,-25.61 -18.305,-39.06 m 638.789,1.95 c -5.371,13.41 -11.566,26.39 -18.516,38.9 l 19.774,10.99 c 7.414,-13.33 14.016,-27.18 19.742,-41.47 l -21,-8.42 m -597.426,73.55 -18.32,13.28 c 9.004,12.43 18.77,24.27 29.23,35.46 l 16.528,-15.45 c -9.821,-10.5 -18.988,-21.62 -27.438,-33.29 m 555.649,1.64 c -8.516,11.62 -17.742,22.67 -27.617,33.11 l 16.433,15.55 c 10.524,-11.12 20.356,-22.91 29.43,-35.28 l -18.246,-13.38 m -496.852,61.25 v 0 l -14.472,17.39 c 11.757,9.78 24.14,18.85 37.078,27.12 l 12.187,-19.06 c -12.137,-7.76 -23.758,-16.27 -34.793,-25.45 m 437.699,1.29 c -11.093,9.12 -22.765,17.56 -34.957,25.26 l 12.075,19.13 c 12.996,-8.2 25.433,-17.2 37.253,-26.92 l -14.371,-17.47 m -365.214,45.05 -9.704,20.44 c 13.778,6.54 28.028,12.25 42.688,17.06 l 7.047,-21.5 c -13.746,-4.51 -27.11,-9.86 -40.031,-15.99 v -0.01 m 292.41,0.9 c -12.965,6.05 -26.371,11.33 -40.153,15.75 l 6.914,21.54 c 14.7,-4.72 28.993,-10.34 42.817,-16.8 l -9.578,-20.49 m -210.653,25.91 -4.277,22.22 c 14.895,2.86 30.105,4.83 45.578,5.84 l 1.469,-22.58 c -14.524,-0.94 -28.797,-2.79 -42.77,-5.48 v 0 m 128.703,0.39 c -13.98,2.61 -28.265,4.37 -42.796,5.22 l 1.328,22.59 c 15.48,-0.91 30.703,-2.79 45.613,-5.56 l -4.145,-22.25" style="fill:#49bc39;fill-opacity:1;fill-rule:nonzero;stroke:none" id="path284"/><path d="m 3773.47,2313.58 h -173.44 c -38.83,0 -70.3,31.47 -70.3,70.31 v 339.88 c 0,38.84 31.47,70.32 70.3,70.32 h 32.28 v 43.26 c 0.01,10.57 8.58,19.12 19.14,19.12 h 70.63 c 10.54,-0.01 19.11,-8.55 19.12,-19.12 v -43.26 h 32.27 v -4.69 -4.69 h -36.96 c -1.23,0 -2.44,0.5 -3.31,1.38 -0.87,0.87 -1.37,2.08 -1.37,3.31 v 47.95 c -0.01,5.37 -4.4,9.74 -9.75,9.75 h -70.63 c -5.38,-0.01 -9.75,-4.38 -9.76,-9.75 v -47.95 c 0,-1.23 -0.5,-2.44 -1.37,-3.31 -0.88,-0.88 -2.08,-1.38 -3.32,-1.38 h -36.97 c -16.84,0 -32.04,-6.81 -43.08,-17.85 -11.04,-11.04 -17.85,-26.25 -17.85,-43.09 v -339.88 c 0,-16.84 6.81,-32.05 17.85,-43.09 11.04,-11.03 26.24,-17.84 43.08,-17.85 h 173.44 c 16.85,0.01 32.05,6.82 43.1,17.85 11.03,11.04 17.84,26.25 17.84,43.09 v 339.88 c 0,16.84 -6.81,32.05 -17.84,43.09 -11.05,11.04 -26.25,17.85 -43.1,17.85 v 4.69 4.69 c 38.85,0 70.32,-31.48 70.32,-70.32 v -339.88 c 0,-38.84 -31.47,-70.31 -70.32,-70.31" style="fill:#49bc39;fill-opacity:1;fill-rule:nonzero;stroke:none" id="path288"/><path d="m 3806,2625.26 h -238.48 c -1.23,0 -2.44,0.5 -3.31,1.37 -0.88,0.88 -1.38,2.08 -1.38,3.32 v 65.88 l 0.01,0.35 0.04,0.52 c 0.19,2.44 2.23,4.33 4.68,4.33 h 238.42 c 2.51,0 4.59,-1.99 4.68,-4.51 l 0.02,-0.52 v -0.17 -65.88 0 c 0,-1.24 -0.5,-2.44 -1.37,-3.32 -0.87,-0.87 -2.08,-1.37 -3.31,-1.37 m 0,4.69 v 0 4.69 -4.69 m -233.79,61.71 v -57.02 h 229.1 v 57.02 h -229.1" style="fill:#49bc39;fill-opacity:1;fill-rule:nonzero;stroke:none" id="path292"/><path d="m 3806,2522.85 h -238.48 c -1.23,0 -2.44,0.5 -3.31,1.37 -0.88,0.87 -1.38,2.08 -1.38,3.32 v 65.87 l 0.01,0.34 0.04,0.54 c 0.18,2.45 2.22,4.34 4.68,4.34 h 238.42 c 2.51,0 4.59,-2 4.68,-4.52 l 0.02,-0.53 v -0.17 -65.87 0 c 0,-1.24 -0.5,-2.44 -1.37,-3.32 -0.87,-0.87 -2.08,-1.37 -3.31,-1.37 m 0,4.69 v 0 4.68 -4.68 m -233.79,61.72 v -57.04 h 229.1 v 57.04 h -229.1" style="fill:#49bc39;fill-opacity:1;fill-rule:nonzero;stroke:none" id="path296"/><path d="m 3806,2422.84 h -238.48 c -1.23,0 -2.44,0.5 -3.31,1.37 -0.88,0.87 -1.38,2.08 -1.38,3.32 v 65.88 l 0.01,0.35 0.04,0.52 c 0.19,2.46 2.22,4.35 4.68,4.35 h 238.42 c 2.51,0 4.59,-2 4.68,-4.52 l 0.02,-0.53 v -0.17 -65.88 0 c 0,-1.24 -0.5,-2.45 -1.37,-3.32 -0.87,-0.87 -2.08,-1.37 -3.31,-1.37 m 0,4.69 v 0 4.68 -4.68 m -233.79,61.72 v -57.04 h 229.1 v 57.04 h -229.1" style="fill:#49bc39;fill-opacity:1;fill-rule:nonzero;stroke:none" id="path300"/><path d="m 3748.91,2343.03 h -124.3 c -34.13,0 -61.78,27.66 -61.78,61.78 v 0.95 c 0,1.24 0.5,2.45 1.38,3.32 0.87,0.87 2.08,1.37 3.31,1.37 H 3806 c 1.23,0 2.44,-0.5 3.31,-1.37 0.87,-0.87 1.37,-2.08 1.37,-3.32 v -0.95 c 0,-34.12 -27.65,-61.78 -61.77,-61.78 m -176.57,58.05 c 0.91,-12.99 6.55,-24.65 15.21,-33.32 9.5,-9.5 22.57,-15.35 37.06,-15.36 h 124.3 c 14.48,0.01 27.55,5.86 37.05,15.36 8.67,8.67 14.3,20.33 15.22,33.32 h -228.84 m -4.82,4.68 v -4.68 4.68" style="fill:#49bc39;fill-opacity:1;fill-rule:nonzero;stroke:none" id="path304"/><path d="m 3686.76,2218.88 c -7.59,0 -15.13,0.23 -22.6,0.68 l 1.37,22.58 c 7.02,-0.42 14.1,-0.64 21.23,-0.64 7.36,0 14.67,0.23 21.91,0.69 l 1.42,-22.58 c -7.72,-0.49 -15.5,-0.73 -23.33,-0.73 m -68.2,6.34 c -15.2,2.86 -30.07,6.67 -44.55,11.35 l 6.96,21.52 c 13.58,-4.38 27.52,-7.95 41.78,-10.64 l -4.19,-22.23 m 137.12,0.13 -4.23,22.23 c 14.25,2.71 28.18,6.31 41.75,10.72 v 0 l 7,-21.51 c -14.47,-4.71 -29.33,-8.54 -44.52,-11.44 m -224.44,28.11 c -13.94,6.55 -27.4,13.95 -40.3,22.13 l 12.12,19.11 c 12.1,-7.68 24.73,-14.62 37.8,-20.77 l -9.62,-20.47 m 311.68,0.3 -9.66,20.45 c 13.05,6.16 25.65,13.12 37.73,20.82 l 12.15,-19.09 c -12.88,-8.2 -26.31,-15.62 -40.22,-22.18 m -389.18,48.83 c -11.82,9.77 -23.02,20.26 -33.53,31.42 l 16.47,15.51 c 9.86,-10.47 20.37,-20.32 31.47,-29.49 l -14.41,-17.44 m 466.53,0.4 -14.43,17.42 c 11.08,9.19 21.57,19.06 31.41,29.54 l 16.5,-15.48 c -10.49,-11.18 -21.67,-21.69 -33.48,-31.48 m -529.42,66.36 c -9.01,12.35 -17.27,25.28 -24.71,38.73 l 19.8,10.95 c 6.98,-12.62 14.73,-24.75 23.19,-36.34 l -18.28,-13.34 m 592.2,0.52 -18.3,13.31 c 8.44,11.61 16.18,23.76 23.13,36.4 v 0 l 19.82,-10.91 c -7.41,-13.47 -15.66,-26.43 -24.65,-38.8 m -636.56,79.72 c -5.64,14.15 -10.42,28.74 -14.28,43.69 l 21.91,5.66 c 3.62,-14.03 8.1,-27.71 13.39,-40.98 l -21.02,-8.37 m 680.81,0.68 -21.04,8.33 c 5.27,13.29 9.72,26.99 13.32,41.03 h -0.01 l 21.92,-5.61 c -3.83,-14.97 -8.58,-29.58 -14.19,-43.75 m -703.74,88.15 c -1.91,15.02 -2.91,30.32 -2.94,45.84 l 22.63,0.05 c 0.03,-14.58 0.96,-28.94 2.75,-43.04 l -22.44,-2.85 m 726.49,0.76 -22.45,2.8 c 1.76,14.1 2.67,28.46 2.67,43.05 v 1.42 l 22.62,0.09 v -1.51 c 0,-15.53 -0.96,-30.83 -2.84,-45.85 m -704.22,88.18 -22.46,2.76 c 1.89,15.37 4.73,30.45 8.46,45.17 l 21.93,-5.56 c -3.5,-13.81 -6.16,-27.95 -7.93,-42.37 m 681.59,2.12 c -1.86,14.41 -4.61,28.54 -8.2,42.32 l 21.89,5.7 c 3.83,-14.7 6.77,-29.76 8.75,-45.12 l -22.44,-2.9 m -660.43,81.31 v 0 0 0 m 0,0 -21.05,8.28 c 5.65,14.35 12.17,28.25 19.51,41.64 l 19.84,-10.87 c -6.88,-12.56 -13,-25.6 -18.3,-39.05 m 638.76,1.96 c -5.37,13.4 -11.56,26.39 -18.52,38.9 l 19.78,10.99 c 7.41,-13.34 14.01,-27.18 19.74,-41.47 l -21,-8.42 m -597.4,73.54 v 0 l -18.32,13.27 c 9,12.44 18.76,24.28 29.22,35.47 l 16.53,-15.45 c -9.82,-10.5 -18.98,-21.62 -27.43,-33.29 m 555.63,1.65 c -8.52,11.61 -17.75,22.67 -27.62,33.11 l 16.44,15.55 c 10.52,-11.13 20.35,-22.91 29.42,-35.29 l -18.24,-13.37 m -496.84,61.24 -14.48,17.39 c 11.76,9.79 24.14,18.85 37.08,27.13 l 12.19,-19.06 c -12.14,-7.77 -23.76,-16.27 -34.79,-25.46 m 437.69,1.29 c -11.1,9.13 -22.77,17.57 -34.96,25.27 l 12.07,19.13 c 13,-8.21 25.44,-17.2 37.26,-26.93 l -14.37,-17.47 m -365.21,45.06 v 0 0 0 m 0,0 -9.71,20.44 c 13.78,6.54 28.03,12.24 42.69,17.05 l 7.05,-21.5 c -13.75,-4.5 -27.11,-9.85 -40.03,-15.99 m 292.4,0.89 c -12.96,6.06 -26.37,11.33 -40.15,15.75 l 6.92,21.55 c 14.69,-4.72 28.99,-10.34 42.81,-16.8 l -9.58,-20.5 m -210.64,25.92 -4.28,22.21 c 14.89,2.87 30.1,4.84 45.57,5.84 l 1.47,-22.57 c -14.52,-0.95 -28.79,-2.79 -42.76,-5.48 m 128.7,0.39 c -13.99,2.6 -28.27,4.36 -42.8,5.22 l 1.33,22.58 c 15.48,-0.91 30.7,-2.78 45.61,-5.56 l -4.14,-22.24" style="fill:#49bc39;fill-opacity:1;fill-rule:nonzero;stroke:none" id="path306"/><path d="m 3129.59,2892.88 h -10.44 c 0,-13.32 -5.37,-25.29 -14.09,-34.03 -8.75,-8.73 -20.72,-14.09 -34.04,-14.1 -13.33,0.01 -25.29,5.37 -34.03,14.1 -8.72,8.74 -14.09,20.71 -14.09,34.03 0,13.32 5.37,25.29 14.09,34.03 8.74,8.73 20.7,14.1 34.03,14.1 13.32,0 25.29,-5.37 34.04,-14.1 8.72,-8.74 14.09,-20.71 14.09,-34.03 h 10.44 10.44 c -0.01,38.11 -30.89,69 -69.01,69 -38.12,0 -68.99,-30.89 -69,-69 0.01,-38.11 30.88,-68.99 69,-69 38.12,0 69,30.89 69.01,69 h -10.44" style="fill:#49bc39;fill-opacity:1;fill-rule:nonzero;stroke:none" id="path308"/><path d="m 4147.34,1120.19 h -10.43 c -0.01,-13.32 -5.37,-25.29 -14.1,-34.03 -8.74,-8.73 -20.71,-14.09 -34.04,-14.1 -13.32,0.01 -25.29,5.37 -34.03,14.1 -8.72,8.74 -14.08,20.71 -14.09,34.03 0.01,13.32 5.37,25.29 14.09,34.03 8.74,8.73 20.71,14.1 34.03,14.1 13.33,0 25.3,-5.37 34.04,-14.1 8.73,-8.74 14.09,-20.71 14.1,-34.03 h 10.43 10.44 c -0.01,38.11 -30.89,69 -69.01,69 -38.11,0 -68.99,-30.89 -68.99,-69 0,-38.11 30.88,-69 68.99,-69 38.12,0 69,30.89 69.01,69 h -10.44" style="fill:#49bc39;fill-opacity:1;fill-rule:nonzero;stroke:none" id="path310"/><path d="M 487.168,571.422 H 476.73 c -0.003,-13.332 -5.367,-25.293 -14.089,-34.031 -8.743,-8.731 -20.703,-14.09 -34.028,-14.102 -13.328,0.012 -25.297,5.371 -34.039,14.102 -8.726,8.738 -14.094,20.711 -14.097,34.031 0.003,13.316 5.371,25.289 14.097,34.027 8.742,8.731 20.711,14.09 34.039,14.102 13.325,-0.012 25.285,-5.371 34.028,-14.102 8.722,-8.738 14.086,-20.711 14.089,-34.027 h 10.438 10.437 c -0.007,38.109 -30.878,68.988 -68.992,69 -38.121,-0.012 -69.004,-30.891 -69.011,-69 0.007,-38.113 30.89,-69 69.011,-69 38.114,0 68.985,30.887 68.992,69 h -10.437" style="fill:#49bc39;fill-opacity:1;fill-rule:nonzero;stroke:none" id="path312"/><path d="m 332.051,2208.32 h -10.438 c -0.004,-13.32 -5.367,-25.29 -14.09,-34.03 -8.742,-8.73 -20.707,-14.09 -34.027,-14.1 -13.336,0.01 -25.297,5.37 -34.039,14.1 -8.723,8.74 -14.086,20.71 -14.09,34.03 0.004,13.33 5.367,25.29 14.09,34.04 8.742,8.72 20.703,14.09 34.039,14.09 13.324,0 25.285,-5.37 34.027,-14.09 8.723,-8.75 14.086,-20.71 14.09,-34.04 h 10.438 10.437 c -0.008,38.11 -30.879,69 -68.992,69 -38.129,0 -68.996,-30.89 -69,-69 0.004,-38.1 30.867,-69 69,-69 38.113,0 68.984,30.89 68.992,69 h -10.437" style="fill:#49bc39;fill-opacity:1;fill-rule:nonzero;stroke:none" id="path314"/><path d="m 587.5,3314.18 h -10.437 c -0.004,-13.32 -5.372,-25.29 -14.102,-34.04 -8.746,-8.72 -20.719,-14.09 -34.035,-14.1 -13.324,0.01 -25.293,5.38 -34.035,14.1 -8.731,8.75 -14.098,20.72 -14.102,34.04 0.004,13.32 5.371,25.28 14.098,34.03 8.746,8.72 20.715,14.09 34.039,14.09 13.316,0 25.289,-5.37 34.035,-14.09 8.73,-8.75 14.098,-20.71 14.102,-34.03 h 10.437 10.438 c -0.012,38.11 -30.911,68.99 -69.012,69 -38.11,-0.01 -69.004,-30.89 -69.012,-69 0.008,-38.12 30.899,-69 69.012,-69.01 38.101,0.01 69,30.89 69.012,69.01 H 587.5" style="fill:#49bc39;fill-opacity:1;fill-rule:nonzero;stroke:none" id="path316"/><path d="m 3748.42,3309.01 h -10.44 c -0.03,-15.95 -12.95,-28.87 -28.88,-28.9 -15.97,0.03 -28.87,12.94 -28.9,28.9 0.03,15.95 12.93,28.86 28.9,28.89 15.93,-0.03 28.85,-12.95 28.88,-28.89 h 10.44 10.43 c -0.01,27.49 -22.28,49.75 -49.75,49.76 -27.5,0 -49.77,-22.28 -49.77,-49.76 0,-27.49 22.27,-49.76 49.77,-49.77 27.47,0.01 49.74,22.28 49.75,49.77 h -10.43" style="fill:#49bc39;fill-opacity:1;fill-rule:nonzero;stroke:none" id="path318"/><path d="m 321.516,3024.84 h -10.438 c -0.027,-15.96 -12.941,-28.87 -28.89,-28.9 -15.95,0.03 -28.872,12.95 -28.899,28.9 0.027,15.95 12.949,28.87 28.899,28.9 15.949,-0.03 28.863,-12.95 28.89,-28.9 h 10.438 10.433 c -0.008,27.49 -22.273,49.76 -49.761,49.77 -27.489,-0.01 -49.762,-22.28 -49.774,-49.77 0.012,-27.49 22.285,-49.76 49.774,-49.77 27.488,0.01 49.753,22.28 49.761,49.77 h -10.433" style="fill:#49bc39;fill-opacity:1;fill-rule:nonzero;stroke:none" id="path320"/><path d="m 814.16,2037.34 h -10.437 c -0.028,-15.95 -12.95,-28.87 -28.887,-28.9 -15.965,0.03 -28.871,12.94 -28.902,28.9 0.031,15.95 12.937,28.87 28.902,28.9 15.937,-0.03 28.859,-12.95 28.887,-28.9 h 10.437 10.438 c -0.012,27.49 -22.285,49.76 -49.762,49.77 -27.496,-0.01 -49.77,-22.28 -49.773,-49.77 0.003,-27.49 22.277,-49.76 49.773,-49.77 27.477,0.01 49.75,22.28 49.762,49.77 H 814.16" style="fill:#49bc39;fill-opacity:1;fill-rule:nonzero;stroke:none" id="path322"/><path d="m 1299.92,1250.64 h -10.43 c -0.03,-15.95 -12.96,-28.87 -28.88,-28.9 -15.97,0.03 -28.88,12.95 -28.9,28.9 0.02,15.95 12.93,28.87 28.9,28.9 15.92,-0.03 28.85,-12.95 28.88,-28.9 h 10.43 10.44 c -0.01,27.49 -22.28,49.76 -49.75,49.77 -27.5,-0.01 -49.77,-22.28 -49.78,-49.77 0.01,-27.49 22.28,-49.76 49.78,-49.77 27.47,0.01 49.74,22.28 49.75,49.77 h -10.44" style="fill:#49bc39;fill-opacity:1;fill-rule:nonzero;stroke:none" id="path324"/><path d="m 3965.21,559.59 h -10.43 c -0.03,-15.949 -12.96,-28.871 -28.88,-28.899 -15.97,0.028 -28.88,12.95 -28.91,28.899 0.03,15.949 12.93,28.859 28.91,28.89 15.93,-0.031 28.85,-12.941 28.88,-28.89 h 10.43 10.44 c -0.01,27.492 -22.28,49.762 -49.75,49.762 -27.5,0 -49.78,-22.27 -49.78,-49.762 0,-27.488 22.27,-49.758 49.78,-49.77 27.47,0.012 49.74,22.282 49.75,49.77 h -10.44" style="fill:#49bc39;fill-opacity:1;fill-rule:nonzero;stroke:none" id="path326"/><path d="m 1685.14,3699.8 h -10.44 c -0.03,-15.96 -12.94,-28.87 -28.87,-28.9 -15.96,0.03 -28.88,12.94 -28.91,28.9 0.03,15.94 12.95,28.86 28.91,28.89 15.94,-0.03 28.84,-12.94 28.87,-28.89 h 10.44 10.43 c 0,27.47 -22.26,49.75 -49.74,49.76 -27.49,-0.01 -49.77,-22.27 -49.78,-49.76 0.01,-27.5 22.29,-49.77 49.78,-49.78 27.48,0.01 49.74,22.29 49.74,49.78 h -10.43" style="fill:#49bc39;fill-opacity:1;fill-rule:nonzero;stroke:none" id="path328"/><path d="m 4128.12,3024.84 h -10.44 c -0.01,-5.1 -4.12,-9.22 -9.24,-9.23 -5.1,0.01 -9.23,4.14 -9.23,9.23 0,5.09 4.14,9.22 9.23,9.23 5.12,-0.01 9.23,-4.13 9.24,-9.23 h 10.44 10.43 c 0,16.62 -13.47,30.1 -30.11,30.1 -16.63,-0.01 -30.1,-13.47 -30.11,-30.1 0.01,-16.63 13.48,-30.1 30.11,-30.1 16.64,0 30.11,13.47 30.11,30.1 h -10.43" style="fill:#49bc39;fill-opacity:1;fill-rule:nonzero;stroke:none" id="path330"/><path d="m 1077.27,2873.21 h -10.44 c -0.01,-5.09 -4.14,-9.22 -9.23,-9.23 -5.11,0.01 -9.23,4.14 -9.24,9.23 0.01,5.09 4.13,9.22 9.24,9.23 5.09,-0.01 9.22,-4.13 9.23,-9.23 h 10.44 10.43 c -0.01,16.63 -13.48,30.1 -30.1,30.1 -16.63,0 -30.11,-13.46 -30.12,-30.1 0.01,-16.63 13.49,-30.09 30.12,-30.1 16.62,0.01 30.09,13.47 30.1,30.1 h -10.43" style="fill:#49bc39;fill-opacity:1;fill-rule:nonzero;stroke:none" id="path332"/><path d="m 143.992,1198.42 h -10.433 c -0.008,-5.09 -4.129,-9.22 -9.235,-9.23 -5.101,0.01 -9.219,4.14 -9.23,9.23 0.011,5.1 4.129,9.22 9.23,9.23 5.106,-0.01 9.227,-4.13 9.235,-9.23 h 10.433 10.438 c -0.004,16.63 -13.469,30.1 -30.106,30.1 -16.633,0 -30.0974,-13.47 -30.1013,-30.1 0.0039,-16.62 13.4683,-30.09 30.1013,-30.1 16.637,0.01 30.102,13.48 30.106,30.1 h -10.438" style="fill:#49bc39;fill-opacity:1;fill-rule:nonzero;stroke:none" id="path334"/><path d="M 505.168,972.309 H 494.73 c -0.007,-5.098 -4.14,-9.231 -9.21,-9.231 -5.106,0 -9.235,4.141 -9.243,9.231 0.008,5.089 4.133,9.222 9.243,9.23 5.074,-0.008 9.203,-4.129 9.21,-9.23 h 10.438 10.434 c -0.004,16.621 -13.461,30.091 -30.082,30.101 -16.633,0 -30.11,-13.469 -30.118,-30.101 0.008,-16.629 13.481,-30.098 30.118,-30.11 16.625,0.012 30.074,13.492 30.082,30.11 h -10.434" style="fill:#49bc39;fill-opacity:1;fill-rule:nonzero;stroke:none" id="path336"/><path d="m 3249.9,2076.67 h -10.43 c -0.01,-5.08 -4.14,-9.22 -9.24,-9.22 -5.09,0 -9.22,4.14 -9.23,9.22 0.01,5.1 4.14,9.22 9.23,9.23 5.1,-0.01 9.23,-4.13 9.24,-9.23 h 10.43 10.44 c -0.01,16.64 -13.48,30.1 -30.11,30.11 -16.62,-0.01 -30.09,-13.47 -30.1,-30.11 0.01,-16.63 13.48,-30.09 30.1,-30.1 16.63,0.01 30.1,13.47 30.11,30.1 h -10.44" style="fill:#49bc39;fill-opacity:1;fill-rule:nonzero;stroke:none" id="path338"/><path d="m 3230.23,1178.76 h -10.43 c -0.01,-5.09 -4.15,-9.23 -9.21,-9.23 -5.09,0 -9.23,4.14 -9.24,9.23 0.01,5.09 4.14,9.22 9.24,9.23 5.06,-0.01 9.2,-4.14 9.21,-9.23 h 10.43 10.44 c -0.01,16.63 -13.47,30.09 -30.08,30.1 -16.63,-0.01 -30.1,-13.47 -30.11,-30.1 0.01,-16.63 13.48,-30.1 30.11,-30.11 16.62,0.02 30.07,13.48 30.08,30.11 h -10.44" style="fill:#49bc39;fill-opacity:1;fill-rule:nonzero;stroke:none" id="path340"/><path d="m 1224.73,1840.38 h -10.44 c -0.01,-5.1 -4.14,-9.22 -9.21,-9.23 -5.09,0.01 -9.22,4.14 -9.23,9.23 0.01,5.09 4.14,9.23 9.23,9.24 5.07,-0.01 9.2,-4.14 9.21,-9.24 h 10.44 10.43 c 0,16.62 -13.45,30.1 -30.08,30.11 -16.63,-0.01 -30.1,-13.48 -30.11,-30.11 0.01,-16.63 13.48,-30.09 30.11,-30.1 16.62,0.01 30.08,13.48 30.08,30.1 h -10.43" style="fill:#49bc39;fill-opacity:1;fill-rule:nonzero;stroke:none" id="path342"/><path d="m 1890.22,3131.05 h -10.43 c -0.01,-5.1 -4.13,-9.22 -9.23,-9.23 -5.11,0.01 -9.24,4.14 -9.24,9.23 0,5.09 4.13,9.22 9.24,9.23 5.1,-0.01 9.22,-4.13 9.23,-9.23 h 10.43 10.44 c 0,16.62 -13.47,30.1 -30.1,30.11 -16.64,-0.01 -30.11,-13.48 -30.12,-30.11 0.01,-16.63 13.49,-30.1 30.12,-30.1 16.63,0 30.1,13.47 30.1,30.1 h -10.44" style="fill:#49bc39;fill-opacity:1;fill-rule:nonzero;stroke:none" id="path344"/><path d="m 2394.68,1873.43 c -123.14,-33.82 -298.68,55.08 -385.73,84.88 -110.21,37.69 -348.64,-86.22 -388.59,-165.44 -54.11,-107.23 -546.57,-475.72 -546.57,-475.72 0,0 89.98,-151.19 211.63,-272.56 129.58,-129.301 244.06,-195.82 244.06,-195.82 0,0 231.26,367.22 326.52,394.45 23.86,6.82 72.61,6.1 137.69,5.37 177.39,-1.97 476.13,-3.93 722.94,146.84 0,0 -198.81,511.83 -321.95,478" style="fill:#f9aa78;fill-opacity:1;fill-rule:nonzero;stroke:none" id="path346"/><path d="m 2379.28,1862.69 c 0,0 177.01,80.77 207.77,107.72 30.77,26.94 126.97,203.95 169.29,284.74 42.33,80.8 173.15,57.71 146.21,-69.27 -26.93,-126.96 -95.26,-269.22 -153.9,-341.88 -41.23,-51.1 -284.72,-146.75 -284.72,-146.75 l -84.65,165.44" style="fill:#f9aa78;fill-opacity:1;fill-rule:nonzero;stroke:none" id="path348"/><path d="m 2387.52,1745.09 c 0,0 345.22,217.54 381.18,249 35.93,31.47 148.28,238.18 197.71,332.55 49.43,94.38 202.22,67.4 170.77,-80.9 -31.44,-148.29 -111.54,-314.22 -179.75,-399.31 -96.66,-120.59 -454.48,-297.57 -454.48,-297.57 l -115.43,196.23" style="fill:#f9aa78;fill-opacity:1;fill-rule:nonzero;stroke:none" id="path350"/><path d="m 2449.95,1659.39 c 0,0 345.24,217.57 381.19,249.03 35.93,31.46 148.27,238.18 197.71,332.53 49.43,94.38 202.22,67.42 170.76,-80.89 -31.44,-148.29 -111.53,-314.2 -179.74,-399.3 -96.67,-120.59 -454.48,-297.58 -454.48,-297.58 l -115.44,196.21" style="fill:#f9aa78;fill-opacity:1;fill-rule:nonzero;stroke:none" id="path352"/><path d="m 2530.75,1555.2 c 0,0 345.23,217.57 381.18,249.05 35.95,31.45 148.28,238.15 197.72,332.51 49.43,94.39 202.21,67.42 170.77,-80.87 -31.46,-148.32 -111.54,-314.24 -179.75,-399.33 -96.67,-120.58 -454.49,-297.58 -454.49,-297.58 l -115.43,196.22" style="fill:#f9aa78;fill-opacity:1;fill-rule:nonzero;stroke:none" id="path354"/><path d="m 2592.01,1571.44 c 46.85,35.14 97.39,67.02 124.62,96.97 53.86,59.21 231.11,66.16 231.2,98.09 0.02,5.43 -0.49,10.92 -1.5,16.43 0.6,-0.59 1.19,-1.18 1.77,-1.77 v 0 0 c -0.99,15.97 -6.4,32.31 -15.53,47.79 3.24,4.5 6.67,9.45 10.27,14.8 20.01,16.02 37.42,32.86 51.44,50.06 0.27,0.33 0.55,0.67 0.82,1.01 0.11,0.13 0.21,0.26 0.31,0.39 0.03,0.04 0.04,0.05 0.07,0.08 0.09,0.11 0.18,0.23 0.27,0.34 0.01,0.01 0.04,0.05 0.05,0.06 62.18,77.35 107.75,174.16 141.13,274.52 17.82,14.26 39.25,21.32 60.21,21.32 2.76,0 5.52,-0.12 8.26,-0.37 -30.16,-37.19 -50.01,-82.37 -64.39,-135.89 -37.56,-139.98 -96.92,-229.87 -217.81,-315.35 -97.53,-68.99 -212.03,-148.75 -331.19,-168.48" style="fill:#da8b5f;fill-opacity:1;fill-rule:nonzero;stroke:none" id="path356"/><path d="m 2420.98,2601.51 c 191.68,-237.55 165.83,-635.47 -74.82,-739.16 -139.19,-248.09 -592.27,-97.84 -738.25,83.05 -287.03,355.69 -286.52,1049.05 -286.52,1049.05 0,0 812.56,-37.26 1099.59,-392.94" style="fill:#82a738;fill-opacity:1;fill-rule:nonzero;stroke:none" id="path358"/><path d="m 2367.9,2657.69 c -230.86,217.13 -667.19,295.99 -896.75,323.2 160.16,-104.39 372.9,-87.18 544.06,-181.13 83.61,-45.91 246.54,-159.33 352.69,-142.07" style="fill:#95b233;fill-opacity:1;fill-rule:nonzero;stroke:none" id="path360"/><path d="m 2436.01,2311.85 c -12.04,-90.33 -34.55,-189.63 -105.07,-253.77 -135.6,-123.22 -308.41,-107.37 -462.75,-28.72 -144.13,73.48 -285.2,204.6 -355.34,352.08 -57.39,120.66 -78.93,253.64 -129.78,376.59 -16.98,41.03 -35.3,87.13 -57.8,131.19 12.37,-207.49 64.27,-673.22 282.64,-943.82 145.98,-180.89 599.06,-331.14 738.25,-83.05 230.38,99.23 263.74,468.06 98.01,707.78 -13.02,-84.13 1.33,-187.06 -8.16,-258.28" style="fill:#769032;fill-opacity:1;fill-rule:nonzero;stroke:none" id="path362"/><path d="m 2346.16,1862.35 c 0,0 -5.94,115.61 -124.01,284.55 -250.43,358.26 -725.37,711.95 -725.37,711.95 0,0 521.44,-286.34 797.56,-661.24 109.61,-148.78 51.82,-335.26 51.82,-335.26" style="fill:#5d8631;fill-opacity:1;fill-rule:nonzero;stroke:none" id="path364"/><path d="m 2332.75,2429.3 c -156.14,-193.5 -135.08,-517.65 60.94,-602.13 113.39,-202.1 482.5,-79.71 601.41,67.65 233.82,289.74 233.42,854.6 233.42,854.6 0,0 -661.95,-30.36 -895.77,-320.12" style="fill:#82a738;fill-opacity:1;fill-rule:nonzero;stroke:none" id="path366"/><path d="m 2375.99,2475.09 c 188.08,176.88 543.52,241.08 730.52,263.26 -130.47,-85.01 -303.76,-71.02 -443.2,-147.55 -68.12,-37.37 -200.84,-129.77 -287.32,-115.71" style="fill:#95b233;fill-opacity:1;fill-rule:nonzero;stroke:none" id="path368"/><path d="m 2320.5,2193.37 c 9.81,-73.6 28.16,-154.51 85.61,-206.75 110.44,-100.4 251.23,-87.5 376.95,-23.41 117.42,59.86 232.34,166.69 289.49,286.81 46.74,98.31 64.3,206.61 105.72,306.79 13.82,33.41 28.75,70.99 47.08,106.87 -10.07,-169.02 -52.36,-548.42 -230.25,-768.86 -118.91,-147.36 -488.02,-269.75 -601.41,-67.65 -187.66,80.86 -214.85,381.29 -79.83,576.56 10.59,-68.54 -1.09,-152.4 6.64,-210.36" style="fill:#769032;fill-opacity:1;fill-rule:nonzero;stroke:none" id="path370"/><path d="m 2393.69,1827.17 c 0,0 4.85,94.18 101.04,231.8 204.01,291.87 590.9,579.99 590.9,579.99 0,0 -424.77,-233.27 -649.71,-538.66 -89.29,-121.23 -42.23,-273.13 -42.23,-273.13" style="fill:#5d8631;fill-opacity:1;fill-rule:nonzero;stroke:none" id="path372"/><path d="m 1602.06,1519.99 c 0,0 63.27,191.7 322.25,237.85 151.04,26.93 235.49,17.21 298.18,7.48 44.79,-6.95 78.46,-13.9 117.36,-7.48 93.32,15.41 244.22,90.5 362.48,131.8 134.73,47.03 245.77,-44.43 245.5,-123.14 -0.09,-31.93 -177.34,-38.88 -231.2,-98.09 -53.86,-59.25 -198.93,-126.02 -226.27,-210.69 -27.35,-84.63 -188.04,-187.59 -238.05,-172.16 l -650.25,234.43" style="fill:#f9aa78;fill-opacity:1;fill-rule:nonzero;stroke:none" id="path374"/><path d="m 2308.15,1755.3 c -22.02,0 -43.82,3.37 -68.75,7.35 4.65,2.22 9.24,4.58 13.73,7.06 19.68,-3.02 37.64,-5.29 55.75,-5.29 10.39,0 20.84,0.75 31.69,2.54 22.74,3.75 48.91,11.05 77.19,20.54 l 3.86,-7.56 c -30.04,-10.24 -57.8,-18.14 -81.77,-22.1 -10.86,-1.79 -21.3,-2.54 -31.7,-2.54" style="fill:#da8b5f;fill-opacity:1;fill-rule:nonzero;stroke:none" id="path376"/><path d="m 2421.62,1779.94 -3.86,7.56 c 1.28,0.43 2.58,0.87 3.88,1.31 2.12,-2.27 4.29,-4.48 6.5,-6.62 -2.19,-0.76 -4.36,-1.51 -6.52,-2.25" style="fill:#da8b5f;fill-opacity:1;fill-rule:nonzero;stroke:none" id="path378"/><path d="m 2239.4,1762.65 c -5.48,0.87 -11.1,1.77 -16.91,2.67 -32.29,5.01 -70.35,10.02 -120.32,10.02 -25.53,0 -54.19,-1.31 -86.75,-4.59 20.71,7.71 38.85,12.27 50.61,12.81 13.01,0.61 25.29,0.88 36.93,0.88 49.95,0 88.01,-5.01 120.28,-10.01 10.51,-1.63 20.4,-3.26 29.89,-4.72 -4.49,-2.48 -9.08,-4.84 -13.73,-7.06" style="fill:#68772a;fill-opacity:1;fill-rule:nonzero;stroke:none" id="path380"/><path d="m 2929.27,1824.43 c -1.28,1.99 -2.63,3.97 -4.04,5.92 1.5,1.08 2.98,2.17 4.46,3.26 1,-1.54 1.96,-3.1 2.88,-4.66 -1.12,-1.56 -2.22,-3.07 -3.3,-4.52" style="fill:#da8b5f;fill-opacity:1;fill-rule:nonzero;stroke:none" id="path382"/><path d="m 2948.1,1781.16 c -0.58,0.59 -1.17,1.18 -1.77,1.77 -2.59,14.04 -8.43,28.14 -17.06,41.5 1.08,1.45 2.18,2.96 3.3,4.52 9.13,-15.48 14.54,-31.82 15.53,-47.79" style="fill:#bf724c;fill-opacity:1;fill-rule:nonzero;stroke:none" id="path384"/><path d="m 2925.23,1830.35 c 0,0 0,-0.01 0,0 1.5,1.08 2.98,2.17 4.46,3.27 v -0.01 c -1.48,-1.09 -2.96,-2.18 -4.46,-3.26" style="fill:#728a2f;fill-opacity:1;fill-rule:nonzero;stroke:none" id="path386"/><path d="m 2428.14,1782.19 c -2.21,2.14 -4.38,4.35 -6.5,6.62 87.04,29.62 193.28,79.16 281.42,109.92 25.52,8.91 50.17,12.85 73.38,12.85 69.24,0 125.57,-35.09 153.25,-77.96 -1.48,-1.1 -2.96,-2.19 -4.46,-3.27 -28.95,40.18 -83.36,72.13 -149.49,72.13 -23.22,0 -47.9,-3.94 -73.41,-12.84 -85.7,-29.93 -188.54,-77.6 -274.19,-107.45" style="fill:#68772a;fill-opacity:1;fill-rule:nonzero;stroke:none" id="path388"/><path d="m 1876.55,1674.16 c 26.45,42.3 89.82,78.31 138.87,96.59 32.56,3.28 61.22,4.59 86.75,4.59 49.97,0 88.03,-5.01 120.32,-10.02 5.81,-0.9 11.43,-1.8 16.91,-2.67 24.93,-3.98 46.73,-7.35 68.75,-7.35 10.4,0 20.84,0.75 31.7,2.54 23.97,3.96 51.73,11.86 81.77,22.1 2.16,0.74 4.33,1.49 6.52,2.25 85.65,29.85 188.49,77.52 274.19,107.45 25.51,8.9 50.19,12.84 73.41,12.84 66.13,0 120.54,-31.95 149.49,-72.13 0,-0.01 0,0 0,0 1.41,-1.95 2.76,-3.93 4.04,-5.92 v 0 c 8.63,-13.36 14.47,-27.46 17.06,-41.5 -34.87,34.15 -95.26,60.01 -123.13,70.91 -13.17,5.17 -26.9,7.35 -40.87,7.35 -47.95,0 -98.65,-25.71 -138.62,-44.73 -89.12,-42.42 -180.6,-85.36 -277.1,-107.91 -20.87,-4.87 -42.04,-6.78 -63.38,-6.78 -65.86,0 -133.3,18.18 -198.08,23.39 -21.2,1.7 -42.83,3.24 -64.57,3.24 -56.02,0 -112.71,-10.23 -164.03,-54.24" style="fill:#da8b5f;fill-opacity:1;fill-rule:nonzero;stroke:none" id="path390"/></g></g></svg>