<svg xmlns="http://www.w3.org/2000/svg" version="1.0" preserveAspectRatio="xMidYMid meet" viewBox="66.32 28.16 382.45 374.73">
 <g fill="#221f1f">
  <path d="M292.2 401 c-5.2 -4.9 -3.1 -12.1 4.1 -14.1 23.7 -6.3 41.6 -14.2 58.9 -25.8 37.8 -25.4 64.4 -65 73.9 -110.3 3.1 -14.7 3.8 -43.3 1.4 -58.4 -9.6 -61.6 -51 -113.3 -108.7 -135.8 -32.3 -12.6 -66.5 -15.6 -100.4 -8.6 -53.6 11 -99.5 47.4 -122.8 97.2 -28.3 60.5 -18.7 132 24.6 183.5 12.7 15 31.3 30.8 42.5 36 21.2 9.8 47.3 5.3 65.3 -11.3 10.4 -9.7 16.5 -22.1 17.7 -36.1 0.7 -8 0.1 -9.3 -4.4 -9.3 -4.2 0 -17.9 -5 -24.1 -8.7 -22.8 -13.8 -35.7 -34 -37.8 -59.5 -2.4 -28.6 18 -64.8 56.4 -100.1 13.3 -12.3 16.1 -14.1 20.2 -13.2 3.7 0.8 14.6 10.3 28.5 24.6 26.9 27.7 40.7 51.1 44.5 75.2 3 19.5 -4.8 43.1 -19.5 58.6 -11.5 12.1 -22.3 18.4 -37.8 22.1 -4.3 1.1 -8.1 2 -8.2 2.2 -0.2 0.2 -0.8 4.6 -1.4 9.8 -2.4 19.2 -9.7 33.9 -23.7 46.9 -8.4 7.9 -20.9 14.8 -32.4 17.8 -10.2 2.8 -30.3 2.5 -40 -0.5 -14.9 -4.7 -28.1 -13.4 -44.8 -29.6 -31.9 -30.8 -51.8 -71 -57.1 -115.2 -1.6 -12.8 -0.6 -40.2 1.8 -53.7 11.6 -64.3 56 -118.3 117.6 -143.2 12.6 -5.1 33.5 -10.3 48.4 -12 81.7 -9.6 159.6 33 195.2 106.9 24.9 51.6 24.9 109.7 0 162.2 -24 50.3 -69.3 87.8 -123.8 102.5 -9.2 2.4 -11.4 2.4 -14.1 -0.1z m-46 -151.6 c0.3 -38.6 0.3 -38.6 2.6 -40.5 5.5 -4.4 15.9 -3.2 18.7 2.1 1.3 2.4 1.5 8.9 1.5 40 0 42.7 -1.5 38.7 12 32.3 17.9 -8.6 32 -29.9 32 -48.3 0 -13.8 -10.6 -35.4 -26.9 -55 -7.6 -9.1 -19 -21 -24.9 -25.8 -4.3 -3.5 -4.3 -3.5 -11 2.9 -28.9 27.5 -46.4 54.8 -47.9 74.9 -1.5 19.1 11.3 40.8 29.9 50.6 6.2 3.2 10.7 5 13 5.3 0.4 0.1 0.9 -17.3 1 -38.5z"/>
 </g>
 <g fill="#97ca6a">
  <path d="M240.9 290.6 c-19.1 -5.3 -37 -24.1 -40.9 -43.2 -1.6 -7.6 -0.8 -23.5 1.5 -29.9 7.1 -20.2 23 -42 47.3 -64.8 8.3 -7.8 8.3 -7.8 15.1 -1.7 19.1 16.8 36 37.8 45 55.7 11.6 23.3 8.7 48.7 -7.7 66.5 -8.7 9.4 -20.5 16.3 -31.5 18.3 -3.7 0.7 -3.7 0.7 -3.7 -36.9 0 -41.3 -0.1 -42.4 -5.8 -44.4 -3.8 -1.3 -8.9 0.8 -10.2 4.3 -0.6 1.6 -1 17.7 -1 40.1 0 42.1 0.8 38.4 -8.1 36z"/>
 </g>
</svg>